<?xml version="1.0" encoding="utf-8"?>
<!-- Generator: Adobe Illustrator 26.0.3, SVG Export Plug-In . SVG Version: 6.00 Build 0)  -->
<svg version="1.1" id="Layer_1" xmlns="http://www.w3.org/2000/svg" xmlns:xlink="http://www.w3.org/1999/xlink" x="0px" y="0px"
	 viewBox="0 0 336 76" style="enable-background:new 0 0 336 76;" xml:space="preserve">
<style type="text/css">
	.st0{fill:#9B9A9A;}
</style>
<g>
	<g>
		<g>
			<g>
				<path class="st0" d="M68.5,13.5h7.4l8.1,25h-5.9L76.4,33h-9.1l-1.7,5.6h-5.3L68.5,13.5z M68.6,29h6.6l-3.3-10.8L68.6,29z"/>
				<path class="st0" d="M85.6,29.7v-0.3c0-6,3.5-9.6,8.1-9.6c2.9,0,4.8,1.3,5.8,3.2V12h5v26.6h-5v-3c-0.9,1.9-3.2,3.4-5.9,3.4
					C89.1,39,85.6,35.8,85.6,29.7z M99.5,29.5v-0.3c0-3.6-1.6-5.5-4.4-5.5c-2.8,0-4.4,1.9-4.4,5.6v0.3c0,3.6,1.8,5.4,4.3,5.4
					C97.7,35,99.5,33.2,99.5,29.5z"/>
				<path class="st0" d="M107.2,20.3h5.4l4.4,13.1l4.3-13.1h4.9l-6.7,18.3h-5.7L107.2,20.3z"/>
				<path class="st0" d="M127.3,33.5c0-4.3,3.9-5.9,9.5-5.9h2.1v-0.7c0-2.2-0.7-3.4-3-3.4c-2,0-2.9,1-3.1,2.6H128
					c0.3-4.3,3.7-6.3,8.2-6.3s7.7,1.8,7.7,6.8v11.9h-4.9v-2.2c-1.1,1.5-2.7,2.6-5.5,2.6C130.1,39,127.3,37.3,127.3,33.5z
					 M138.9,32.2v-1.5h-2c-2.9,0-4.7,0.6-4.7,2.6c0,1.3,0.8,2.2,2.7,2.2C137.2,35.4,138.9,34.2,138.9,32.2z"/>
				<path class="st0" d="M148.2,20.3h5.1v2.9c0.9-1.8,2.9-3.3,6-3.3c3.6,0,6.2,2.2,6.2,7.1v11.7h-5.1V27.6c0-2.5-1-3.7-3.2-3.7
					c-2.2,0-3.8,1.3-3.8,4v10.6h-5.1V20.3z"/>
				<path class="st0" d="M168.6,29.6v-0.3c0-5.9,4.2-9.5,9.5-9.5c4.2,0,8.2,1.9,8.6,7.1h-4.8c-0.4-2.1-1.6-3.1-3.7-3.1
					c-2.6,0-4.4,2-4.4,5.5v0.3c0,3.7,1.6,5.6,4.5,5.6c2,0,3.7-1.2,3.9-3.5h4.6c-0.3,4.3-3.4,7.4-8.8,7.4
					C172.7,39,168.6,35.6,168.6,29.6z"/>
				<path class="st0" d="M188.9,29.6v-0.3c0-5.8,4.1-9.5,9.4-9.5c4.7,0,8.9,2.8,8.9,9.3v1.4H194c0.1,3,1.8,4.8,4.6,4.8
					c2.3,0,3.5-1,3.8-2.6h4.8c-0.6,4-3.7,6.2-8.8,6.2C192.9,39,188.9,35.5,188.9,29.6z M202.3,27.4c-0.2-2.8-1.6-4.1-4-4.1
					c-2.3,0-3.8,1.5-4.2,4.1H202.3z"/>
				<path class="st0" d="M209.5,29.7v-0.3c0-6,3.5-9.6,8.1-9.6c2.9,0,4.8,1.3,5.8,3.2V12h5v26.6h-5v-3c-0.9,1.9-3.2,3.4-5.9,3.4
					C213,39,209.5,35.8,209.5,29.7z M223.4,29.5v-0.3c0-3.6-1.6-5.5-4.4-5.5c-2.8,0-4.4,1.9-4.4,5.6v0.3c0,3.6,1.8,5.4,4.3,5.4
					C221.6,35,223.4,33.2,223.4,29.5z"/>
			</g>
			<path class="st0" d="M257.5,35.4l-9.2,6.7c-0.7,0.5-1.7-0.2-1.4-1.1l3.5-10.8c0.1-0.4,0-0.8-0.3-1.1l-9.2-6.7
				c-0.7-0.5-0.4-1.7,0.6-1.7l11.4,0c0.4,0,0.8-0.3,0.9-0.7l3.5-10.8c0.3-0.9,1.5-0.9,1.8,0l3.5,10.8c0.1,0.4,0.5,0.7,0.9,0.7
				l11.4,0c0.9,0,1.3,1.2,0.6,1.7l-9.2,6.7c-0.3,0.2-0.5,0.7-0.3,1.1l3.5,10.8c0.3,0.9-0.7,1.6-1.5,1.1l-9.2-6.7
				C258.3,35.1,257.8,35.1,257.5,35.4z"/>
		</g>
	</g>
	<g>
		<path d="M60.3,63.6V50.3H68V52h-5.8v4.2h4.8v1.6h-4.8V62h6.2v1.6H60.3z"/>
		<path d="M70.7,63.6v-9.5h1.8v1.3l0,0.7h0c0.2-0.6,0.7-1.1,1.3-1.5c0.6-0.4,1.3-0.6,2-0.6c1.6,0,2.5,0.7,2.9,2.2h0
			c0.3-0.6,0.7-1.1,1.3-1.5c0.6-0.4,1.3-0.6,2-0.6c2.1,0,3.1,1.2,3.1,3.6v6.1h-1.8v-5.7c0-0.8-0.1-1.4-0.3-1.8
			c-0.2-0.4-0.7-0.6-1.3-0.6c-0.6,0-1.2,0.2-1.7,0.7s-0.8,1-1,1.7c-0.1,0.4-0.1,0.8-0.1,1.3v4.3H77v-5.7c0-0.8-0.1-1.3-0.3-1.8
			c-0.2-0.4-0.7-0.6-1.3-0.6c-0.7,0-1.2,0.2-1.7,0.7s-0.8,1.1-1,1.8c-0.1,0.3-0.1,0.7-0.1,1.2v4.3H70.7z"/>
		<path d="M87.9,67.4V54.1h1.7v0.8l0,0.7h0c0,0,0.1-0.1,0.1-0.2s0.2-0.2,0.3-0.4c0.2-0.2,0.4-0.4,0.6-0.5s0.5-0.3,0.9-0.4
			s0.8-0.2,1.3-0.2c1.3,0,2.3,0.5,3,1.4s1.1,2.1,1.1,3.6s-0.4,2.7-1.2,3.6c-0.8,0.9-1.8,1.4-3.1,1.4c-0.4,0-0.8-0.1-1.1-0.2
			c-0.3-0.1-0.6-0.2-0.8-0.4c-0.2-0.2-0.4-0.3-0.6-0.5c-0.2-0.2-0.3-0.3-0.3-0.4l-0.1-0.2h0c0,0.2,0,0.5,0,0.8v4.3H87.9z M89.6,58.9
			c0,0.9,0.2,1.7,0.7,2.4c0.5,0.7,1.1,1,2,1c0.8,0,1.4-0.3,2-0.9c0.5-0.6,0.8-1.4,0.8-2.5c0-1-0.2-1.9-0.7-2.5
			c-0.5-0.6-1.1-0.9-1.9-0.9c-0.8,0-1.4,0.3-2,0.9S89.6,57.7,89.6,58.9z"/>
		<path d="M99.2,63.6v-9.5h1.8v1.7l0,0.7h0c0.2-0.7,0.6-1.3,1.1-1.8c0.5-0.5,1.2-0.7,1.9-0.7l0.5,0v1.8c-0.2,0-0.3-0.1-0.5-0.1
			c-0.6,0-1.1,0.2-1.6,0.6s-0.8,0.9-1.1,1.6c-0.2,0.5-0.2,1.1-0.2,1.7v3.9H99.2z"/>
		<path d="M105.5,58.9c0-1.5,0.4-2.7,1.3-3.6s2-1.4,3.4-1.4c1.3,0,2.3,0.4,3,1.3c0.7,0.8,1.1,1.9,1.1,3.2l-0.1,0.8h-6.9
			c0,1,0.4,1.8,1,2.3c0.6,0.5,1.4,0.8,2.3,0.8c0.5,0,1-0.1,1.4-0.3c0.5-0.2,0.8-0.4,1-0.5l0.3-0.3l0.8,1.3c-0.1,0.1-0.3,0.2-0.5,0.4
			s-0.6,0.4-1.3,0.6s-1.3,0.4-2,0.4c-1.5,0-2.7-0.5-3.6-1.4S105.5,60.3,105.5,58.9z M107.4,57.7h5.1c0-0.8-0.3-1.4-0.7-1.8
			c-0.4-0.4-1-0.6-1.6-0.6c-0.7,0-1.3,0.2-1.8,0.6C107.9,56.4,107.5,57,107.4,57.7z"/>
		<path d="M115.8,62.4l0.9-1.3c0.1,0.1,0.2,0.2,0.3,0.3s0.5,0.3,0.9,0.5c0.5,0.2,1,0.3,1.4,0.3c0.4,0,0.8-0.1,1.1-0.3
			c0.3-0.2,0.5-0.5,0.5-0.9c0-0.3-0.2-0.6-0.5-0.8c-0.3-0.2-0.7-0.4-1.2-0.6c-0.5-0.2-1-0.4-1.4-0.6c-0.5-0.2-0.9-0.5-1.2-0.9
			c-0.3-0.4-0.5-0.9-0.5-1.5c0-0.8,0.3-1.5,1-2c0.7-0.5,1.5-0.7,2.5-0.7c0.6,0,1.2,0.1,1.7,0.3c0.5,0.2,0.9,0.4,1.1,0.5l0.3,0.3
			l-0.7,1.4c-0.1-0.1-0.2-0.1-0.3-0.2c-0.1-0.1-0.4-0.2-0.8-0.4c-0.4-0.2-0.8-0.2-1.3-0.2c-0.4,0-0.8,0.1-1.1,0.3s-0.5,0.5-0.5,0.9
			c0,0.3,0.2,0.6,0.5,0.8c0.3,0.2,0.7,0.4,1.2,0.6c0.5,0.2,1,0.4,1.4,0.6c0.5,0.2,0.9,0.5,1.2,0.9c0.3,0.4,0.5,0.9,0.5,1.5
			c0,0.8-0.3,1.5-1,2c-0.6,0.5-1.5,0.8-2.5,0.8c-0.7,0-1.3-0.1-1.9-0.3s-1-0.5-1.3-0.7L115.8,62.4z"/>
		<path d="M124.2,60.9c0-2.2,1.9-3.3,5.7-3.3h0.4v-0.2c0-1.4-0.7-2.1-2.1-2.1c-0.4,0-0.9,0.1-1.3,0.2s-0.8,0.3-1,0.5l-0.3,0.2
			l-0.8-1.3c0.1-0.1,0.2-0.2,0.4-0.3c0.2-0.1,0.6-0.3,1.2-0.5c0.6-0.2,1.2-0.3,1.9-0.3c1.2,0,2.1,0.3,2.8,1c0.7,0.6,1,1.6,1,2.8v6
			h-1.7v-0.9l0-0.8h0c0,0-0.1,0.1-0.1,0.2s-0.2,0.2-0.3,0.5s-0.4,0.4-0.6,0.6c-0.2,0.2-0.5,0.3-0.9,0.5s-0.8,0.2-1.2,0.2
			c-0.9,0-1.6-0.3-2.3-0.8C124.5,62.5,124.2,61.8,124.2,60.9z M126.1,60.8c0,0.4,0.2,0.8,0.5,1.1c0.3,0.3,0.8,0.5,1.3,0.5
			c0.7,0,1.3-0.3,1.8-0.9c0.5-0.6,0.7-1.3,0.7-2.1V59h-0.5C127.4,59,126.1,59.6,126.1,60.8z"/>
		<path d="M134.9,63.6v-9.5h1.8v1.7l0,0.7h0c0.2-0.7,0.6-1.3,1.1-1.8c0.5-0.5,1.2-0.7,1.9-0.7l0.5,0v1.8c-0.2,0-0.3-0.1-0.5-0.1
			c-0.6,0-1.1,0.2-1.6,0.6c-0.5,0.4-0.8,0.9-1.1,1.6c-0.2,0.5-0.2,1.1-0.2,1.7v3.9H134.9z"/>
		<path d="M142,52.2v-1.9h1.8v1.9H142z M142,63.6v-9.5h1.8v9.5H142z"/>
		<path d="M145.9,60.9c0-2.2,1.9-3.3,5.7-3.3h0.4v-0.2c0-1.4-0.7-2.1-2.1-2.1c-0.4,0-0.9,0.1-1.3,0.2s-0.8,0.3-1,0.5l-0.3,0.2
			l-0.8-1.3c0.1-0.1,0.2-0.2,0.4-0.3c0.2-0.1,0.6-0.3,1.2-0.5c0.6-0.2,1.2-0.3,1.9-0.3c1.2,0,2.1,0.3,2.8,1c0.7,0.6,1,1.6,1,2.8v6
			h-1.7v-0.9l0-0.8h0c0,0-0.1,0.1-0.1,0.2s-0.2,0.2-0.3,0.5s-0.4,0.4-0.6,0.6c-0.2,0.2-0.5,0.3-0.9,0.5s-0.8,0.2-1.2,0.2
			c-0.9,0-1.6-0.3-2.3-0.8C146.2,62.5,145.9,61.8,145.9,60.9z M147.7,60.8c0,0.4,0.2,0.8,0.5,1.1c0.3,0.3,0.8,0.5,1.3,0.5
			c0.7,0,1.3-0.3,1.8-0.9c0.5-0.6,0.7-1.3,0.7-2.1V59h-0.5C149,59,147.7,59.6,147.7,60.8z"/>
		<path d="M156.5,61V50.3h1.8v10.4c0,0.5,0.1,0.9,0.3,1.1c0.2,0.2,0.4,0.3,0.8,0.3l0.3,0v1.6c-0.2,0-0.4,0-0.6,0
			C157.3,63.7,156.5,62.8,156.5,61z"/>
	</g>
</g>
</svg>
