<?xml version="1.0" encoding="utf-8"?>
<!-- Generator: Adobe Illustrator 26.0.3, SVG Export Plug-In . SVG Version: 6.00 Build 0)  -->
<svg version="1.1" id="Layer_1" xmlns="http://www.w3.org/2000/svg" xmlns:xlink="http://www.w3.org/1999/xlink" x="0px" y="0px"
	 viewBox="0 0 336 76" style="enable-background:new 0 0 336 76;" xml:space="preserve">
<style type="text/css">
	.st0{fill:#EAC306;}
</style>
<g>
	<g>
		<path class="st0" d="M228.9,36.4l-9.2,6.7c-0.7,0.5-1.7-0.2-1.4-1.1l3.5-10.8c0.1-0.4,0-0.8-0.3-1.1l-9.2-6.7
			c-0.7-0.5-0.4-1.7,0.6-1.7l11.4,0c0.4,0,0.8-0.3,0.9-0.7l3.5-10.9c0.3-0.9,1.5-0.9,1.8,0l3.5,10.9c0.1,0.4,0.5,0.7,0.9,0.7l11.4,0
			c0.9,0,1.3,1.2,0.6,1.7l-9.2,6.7c-0.3,0.2-0.5,0.7-0.3,1.1l3.5,10.8c0.3,0.9-0.7,1.6-1.4,1.1l-9.2-6.7
			C229.7,36.1,229.2,36.1,228.9,36.4z"/>
		<g>
			<path class="st0" d="M88.9,13.2h7.3l5.7,15.3l5.7-15.3h7.2v24.5h-5.5V20.5l-6.8,17.2h-1.8l-6.8-17.2v17.2h-5L88.9,13.2L88.9,13.2
				z"/>
			<path class="st0" d="M118.4,32.8c0-4.2,3.8-5.8,9.3-5.8h2v-0.7c0-2.1-0.6-3.3-2.9-3.3c-2,0-2.8,1-3.1,2.5H119
				c0.3-4.3,3.7-6.1,8.1-6.1c4.4,0,7.5,1.8,7.5,6.6v11.7h-4.8v-2.2c-1,1.4-2.6,2.5-5.4,2.5C121.1,38.1,118.4,36.5,118.4,32.8z
				 M129.7,31.5v-1.5h-1.9c-2.9,0-4.6,0.6-4.6,2.5c0,1.3,0.8,2.2,2.6,2.2C128,34.6,129.7,33.4,129.7,31.5z"/>
			<path class="st0" d="M137.5,32.1h4.6c0.2,1.6,1,2.5,3.2,2.5c1.9,0,2.8-0.7,2.8-2c0-1.2-1.1-1.7-3.6-2.1c-4.8-0.7-6.6-2.1-6.6-5.6
				c0-3.7,3.4-5.6,7.1-5.6c4,0,7,1.4,7.4,5.6h-4.6c-0.3-1.5-1.1-2.2-2.8-2.2c-1.6,0-2.5,0.8-2.5,1.9c0,1.1,0.9,1.6,3.5,2
				c4.5,0.7,7,1.8,7,5.6c0,3.9-2.8,5.9-7.5,5.9C140.5,38.1,137.7,36,137.5,32.1z"/>
			<path class="st0" d="M156.8,32.4v-9.1h-2.3v-3.5h2.3v-3.9h4.9v3.9h3.8v3.5h-3.8V32c0,1.4,0.7,2.1,2,2.1c0.8,0,1.3-0.1,1.9-0.3
				v3.8c-0.7,0.2-1.7,0.5-3,0.5C158.8,38.1,156.8,36.1,156.8,32.4z"/>
			<path class="st0" d="M167.9,29v-0.3c0-5.7,4-9.3,9.2-9.3c4.6,0,8.7,2.7,8.7,9.1v1.4h-12.9c0.1,3,1.7,4.7,4.5,4.7
				c2.3,0,3.4-1,3.7-2.5h4.7c-0.6,3.9-3.7,6-8.6,6C171.8,38.1,167.9,34.7,167.9,29z M181,26.8c-0.2-2.7-1.5-4-3.9-4
				c-2.2,0-3.7,1.5-4.1,4C173,26.8,181,26.8,181,26.8z"/>
			<path class="st0" d="M189.1,19.8h5v3.4c1.1-2.4,2.9-3.7,5.8-3.7v4.6c-3.7,0-5.8,1.2-5.8,4.6v9h-5V19.8L189.1,19.8z"/>
		</g>
	</g>
</g>
<g>
	<path d="M88.9,62.6V49.3h7.7V51h-5.8v4.2h4.8v1.6h-4.8V61h6.2v1.6H88.9z"/>
	<path d="M99.3,62.6v-9.5h1.8v1.3l0,0.7h0c0.2-0.6,0.7-1.1,1.3-1.5c0.6-0.4,1.3-0.6,2-0.6c1.6,0,2.5,0.7,2.9,2.2h0
		c0.3-0.6,0.7-1.1,1.3-1.5c0.6-0.4,1.3-0.6,2-0.6c2.1,0,3.1,1.2,3.1,3.6v6.1h-1.8v-5.7c0-0.8-0.1-1.4-0.3-1.8
		c-0.2-0.4-0.7-0.6-1.3-0.6c-0.6,0-1.2,0.2-1.7,0.7s-0.8,1-1,1.7c-0.1,0.4-0.1,0.8-0.1,1.3v4.3h-1.8v-5.7c0-0.8-0.1-1.3-0.3-1.8
		c-0.2-0.4-0.7-0.6-1.3-0.6c-0.7,0-1.2,0.2-1.7,0.7s-0.8,1.1-1,1.8c-0.1,0.3-0.1,0.7-0.1,1.2v4.3H99.3z"/>
	<path d="M116.5,66.4V53.1h1.7v0.8l0,0.7h0c0,0,0.1-0.1,0.1-0.2s0.2-0.2,0.3-0.4c0.2-0.2,0.4-0.4,0.6-0.5s0.5-0.3,0.9-0.4
		s0.8-0.2,1.3-0.2c1.3,0,2.3,0.5,3,1.4s1.1,2.1,1.1,3.6s-0.4,2.7-1.2,3.6c-0.8,0.9-1.8,1.4-3.1,1.4c-0.4,0-0.8-0.1-1.1-0.2
		c-0.3-0.1-0.6-0.2-0.8-0.4c-0.2-0.2-0.4-0.3-0.6-0.5c-0.2-0.2-0.3-0.3-0.3-0.4l-0.1-0.2h0c0,0.2,0,0.5,0,0.8v4.3H116.5z
		 M118.2,57.9c0,0.9,0.2,1.7,0.7,2.4c0.5,0.7,1.1,1,2,1c0.8,0,1.4-0.3,2-0.9c0.5-0.6,0.8-1.4,0.8-2.5c0-1-0.2-1.9-0.7-2.5
		c-0.5-0.6-1.1-0.9-1.9-0.9c-0.8,0-1.4,0.3-2,0.9S118.2,56.8,118.2,57.9z"/>
	<path d="M127.8,62.6v-9.5h1.8v1.7l0,0.7h0c0.2-0.7,0.6-1.3,1.1-1.8c0.5-0.5,1.2-0.7,1.9-0.7l0.5,0v1.8c-0.2,0-0.3-0.1-0.5-0.1
		c-0.6,0-1.1,0.2-1.6,0.6s-0.8,0.9-1.1,1.6c-0.2,0.5-0.2,1.1-0.2,1.7v3.9H127.8z"/>
	<path d="M134.1,57.9c0-1.5,0.4-2.7,1.3-3.6s2-1.4,3.4-1.4c1.3,0,2.3,0.4,3,1.3c0.7,0.8,1.1,1.9,1.1,3.2l-0.1,0.8H136
		c0,1,0.4,1.8,1,2.3c0.6,0.5,1.4,0.8,2.3,0.8c0.5,0,1-0.1,1.4-0.3c0.5-0.2,0.8-0.4,1-0.5l0.3-0.3l0.8,1.3c-0.1,0.1-0.3,0.2-0.5,0.4
		s-0.6,0.4-1.3,0.6s-1.3,0.4-2,0.4c-1.5,0-2.7-0.5-3.6-1.4S134.1,59.3,134.1,57.9z M136,56.7h5.1c0-0.8-0.3-1.4-0.7-1.8
		c-0.4-0.4-1-0.6-1.6-0.6c-0.7,0-1.3,0.2-1.8,0.6C136.5,55.4,136.2,56,136,56.7z"/>
	<path d="M144.4,61.4l0.9-1.3c0.1,0.1,0.2,0.2,0.3,0.3s0.5,0.3,0.9,0.5c0.5,0.2,1,0.3,1.4,0.3c0.4,0,0.8-0.1,1.1-0.3
		c0.3-0.2,0.5-0.5,0.5-0.9c0-0.3-0.2-0.6-0.5-0.8c-0.3-0.2-0.7-0.4-1.2-0.6c-0.5-0.2-1-0.4-1.4-0.6c-0.5-0.2-0.9-0.5-1.2-0.9
		c-0.3-0.4-0.5-0.9-0.5-1.5c0-0.8,0.3-1.5,1-2c0.7-0.5,1.5-0.7,2.5-0.7c0.6,0,1.2,0.1,1.7,0.3c0.5,0.2,0.9,0.4,1.1,0.5l0.3,0.3
		l-0.7,1.4c-0.1-0.1-0.2-0.1-0.3-0.2c-0.1-0.1-0.4-0.2-0.8-0.4c-0.4-0.2-0.8-0.2-1.3-0.2c-0.4,0-0.8,0.1-1.1,0.3s-0.5,0.5-0.5,0.9
		c0,0.3,0.2,0.6,0.5,0.8c0.3,0.2,0.7,0.4,1.2,0.6c0.5,0.2,1,0.4,1.4,0.6c0.5,0.2,0.9,0.5,1.2,0.9c0.3,0.4,0.5,0.9,0.5,1.5
		c0,0.8-0.3,1.5-1,2c-0.6,0.5-1.5,0.8-2.5,0.8c-0.7,0-1.3-0.1-1.9-0.3s-1-0.5-1.3-0.7L144.4,61.4z"/>
	<path d="M152.8,59.9c0-2.2,1.9-3.3,5.7-3.3h0.4v-0.2c0-1.4-0.7-2.1-2.1-2.1c-0.4,0-0.9,0.1-1.3,0.2s-0.8,0.3-1,0.5l-0.3,0.2
		l-0.8-1.3c0.1-0.1,0.2-0.2,0.4-0.3c0.2-0.1,0.6-0.3,1.2-0.5c0.6-0.2,1.2-0.3,1.9-0.3c1.2,0,2.1,0.3,2.8,1c0.7,0.6,1,1.6,1,2.8v6
		h-1.7v-0.9l0-0.8h0c0,0-0.1,0.1-0.1,0.2s-0.2,0.2-0.3,0.5s-0.4,0.4-0.6,0.6c-0.2,0.2-0.5,0.3-0.9,0.5s-0.8,0.2-1.2,0.2
		c-0.9,0-1.6-0.3-2.3-0.8C153.2,61.6,152.8,60.8,152.8,59.9z M154.7,59.9c0,0.4,0.2,0.8,0.5,1.1c0.3,0.3,0.8,0.5,1.3,0.5
		c0.7,0,1.3-0.3,1.8-0.9c0.5-0.6,0.7-1.3,0.7-2.1V58h-0.5C156,58,154.7,58.6,154.7,59.9z"/>
	<path d="M163.5,62.6v-9.5h1.8v1.7l0,0.7h0c0.2-0.7,0.6-1.3,1.1-1.8c0.5-0.5,1.2-0.7,1.9-0.7l0.5,0v1.8c-0.2,0-0.3-0.1-0.5-0.1
		c-0.6,0-1.1,0.2-1.6,0.6c-0.5,0.4-0.8,0.9-1.1,1.6c-0.2,0.5-0.2,1.1-0.2,1.7v3.9H163.5z"/>
	<path d="M170.6,51.2v-1.9h1.8v1.9H170.6z M170.6,62.6v-9.5h1.8v9.5H170.6z"/>
	<path d="M174.5,59.9c0-2.2,1.9-3.3,5.7-3.3h0.4v-0.2c0-1.4-0.7-2.1-2.1-2.1c-0.4,0-0.9,0.1-1.3,0.2s-0.8,0.3-1,0.5l-0.3,0.2
		l-0.8-1.3c0.1-0.1,0.2-0.2,0.4-0.3c0.2-0.1,0.6-0.3,1.2-0.5c0.6-0.2,1.2-0.3,1.9-0.3c1.2,0,2.1,0.3,2.8,1c0.7,0.6,1,1.6,1,2.8v6
		h-1.7v-0.9l0-0.8h0c0,0-0.1,0.1-0.1,0.2s-0.2,0.2-0.3,0.5s-0.4,0.4-0.6,0.6c-0.2,0.2-0.5,0.3-0.9,0.5s-0.8,0.2-1.2,0.2
		c-0.9,0-1.6-0.3-2.3-0.8C174.8,61.6,174.5,60.8,174.5,59.9z M176.3,59.9c0,0.4,0.2,0.8,0.5,1.1c0.3,0.3,0.8,0.5,1.3,0.5
		c0.7,0,1.3-0.3,1.8-0.9c0.5-0.6,0.7-1.3,0.7-2.1V58h-0.5C177.6,58,176.3,58.6,176.3,59.9z"/>
	<path d="M185.1,60V49.3h1.8v10.4c0,0.5,0.1,0.9,0.3,1.1c0.2,0.2,0.4,0.3,0.8,0.3l0.3,0v1.6c-0.2,0-0.4,0-0.6,0
		C185.9,62.7,185.1,61.8,185.1,60z"/>
</g>
</svg>
