<?xml version="1.0" encoding="utf-8"?>
<!-- Generator: Adobe Illustrator 26.0.3, SVG Export Plug-In . SVG Version: 6.00 Build 0)  -->
<svg version="1.1" id="Layer_1" xmlns="http://www.w3.org/2000/svg" xmlns:xlink="http://www.w3.org/1999/xlink" x="0px" y="0px"
	 viewBox="0 0 336 76" style="enable-background:new 0 0 336 76;" xml:space="preserve">
<style type="text/css">
	.st0{fill:#45566E;}
</style>
<g>
	<g>
		<g>
			<path class="st0" d="M90.3,30.5h5.4c0.2,2.2,1.2,4.1,4.9,4.1c2.5,0,4.1-1.4,4.1-3.3c0-2-1.1-2.7-4.7-3.3c-6.4-0.8-9-2.8-9-7.6
				c0-4.3,3.6-7.5,9.1-7.5c5.6,0,8.9,2.5,9.4,7.5h-5.2c-0.3-2.3-1.7-3.3-4.2-3.3c-2.5,0-3.7,1.2-3.7,2.8c0,1.8,0.8,2.6,4.7,3.2
				c6.1,0.8,9.2,2.4,9.2,7.6c0,4.4-3.6,8-9.6,8C93.8,38.8,90.6,35.5,90.3,30.5z"/>
			<path class="st0" d="M112.7,29.5v-0.3c0-5.8,4.1-9.5,9.4-9.5c4.7,0,8.9,2.8,8.9,9.3v1.4h-13.2c0.1,3,1.8,4.8,4.6,4.8
				c2.3,0,3.5-1,3.8-2.6h4.8c-0.6,4-3.7,6.2-8.8,6.2C116.7,38.8,112.7,35.3,112.7,29.5z M126.1,27.2c-0.2-2.8-1.6-4.1-4-4.1
				c-2.3,0-3.8,1.5-4.2,4.1H126.1z"/>
			<path class="st0" d="M134.4,20.1h5.1V23c0.9-1.8,2.9-3.3,6-3.3c3.6,0,6.2,2.2,6.2,7.1v11.7h-5.1V27.5c0-2.5-1-3.7-3.2-3.7
				c-2.2,0-3.8,1.3-3.8,4v10.6h-5.1L134.4,20.1L134.4,20.1z"/>
			<path class="st0" d="M155.7,14.8c0-1.6,1.3-2.8,2.9-2.8c1.6,0,2.9,1.2,2.9,2.8s-1.3,2.8-2.9,2.8
				C156.9,17.6,155.7,16.4,155.7,14.8z M156,20.1h5v18.3h-5V20.1z"/>
			<path class="st0" d="M164.6,29.4v-0.3c0-5.7,4.2-9.5,9.7-9.5s9.6,3.7,9.6,9.4v0.3c0,5.8-4.2,9.5-9.7,9.5
				C168.8,38.8,164.6,35.1,164.6,29.4z M178.8,29.3v-0.2c0-3.5-1.6-5.6-4.5-5.6c-2.8,0-4.5,2-4.5,5.5v0.3c0,3.5,1.6,5.6,4.5,5.6
				C177.1,34.9,178.8,32.8,178.8,29.3z"/>
			<path class="st0" d="M187.3,20.1h5.1v3.5c1.2-2.5,2.9-3.7,5.9-3.8v4.7c-3.7,0-5.9,1.2-5.9,4.7v9.2h-5.1V20.1L187.3,20.1z"/>
		</g>
		<path class="st0" d="M227.5,35.3l-9.2,6.7c-0.7,0.5-1.7-0.2-1.4-1.1l3.5-10.8c0.1-0.4,0-0.8-0.3-1.1l-9.2-6.7
			c-0.7-0.5-0.4-1.7,0.6-1.7l11.4,0c0.4,0,0.8-0.3,0.9-0.7l3.5-10.8c0.3-0.9,1.5-0.9,1.8,0l3.5,10.8c0.1,0.4,0.5,0.7,0.9,0.7l11.4,0
			c0.9,0,1.3,1.2,0.6,1.7l-9.2,6.7c-0.3,0.2-0.5,0.7-0.3,1.1l3.5,10.8c0.3,0.9-0.7,1.6-1.4,1.1l-9.2-6.7
			C228.3,35.1,227.9,35.1,227.5,35.3z"/>
	</g>
</g>
<g>
	<path d="M90.4,64V50.8h7.7v1.6h-5.8v4.2h4.8v1.6h-4.8v4.3h6.2V64H90.4z"/>
	<path d="M100.8,64v-9.5h1.8v1.3l0,0.7h0c0.2-0.6,0.7-1.1,1.3-1.5c0.6-0.4,1.3-0.6,2-0.6c1.6,0,2.5,0.7,2.9,2.2h0
		c0.3-0.6,0.7-1.1,1.3-1.5c0.6-0.4,1.3-0.6,2-0.6c2.1,0,3.1,1.2,3.1,3.6V64h-1.8v-5.7c0-0.8-0.1-1.4-0.3-1.8
		c-0.2-0.4-0.7-0.6-1.3-0.6c-0.6,0-1.2,0.2-1.7,0.7s-0.8,1-1,1.7c-0.1,0.4-0.1,0.8-0.1,1.3V64h-1.8v-5.7c0-0.8-0.1-1.3-0.3-1.8
		c-0.2-0.4-0.7-0.6-1.3-0.6c-0.7,0-1.2,0.2-1.7,0.7s-0.8,1.1-1,1.8c-0.1,0.3-0.1,0.7-0.1,1.2V64H100.8z"/>
	<path d="M118,67.8V54.5h1.7v0.8l0,0.7h0c0,0,0.1-0.1,0.1-0.2s0.2-0.2,0.3-0.4c0.2-0.2,0.4-0.4,0.6-0.5s0.5-0.3,0.9-0.4
		s0.8-0.2,1.3-0.2c1.3,0,2.3,0.5,3,1.4s1.1,2.1,1.1,3.6s-0.4,2.7-1.2,3.6c-0.8,0.9-1.8,1.4-3.1,1.4c-0.4,0-0.8-0.1-1.1-0.2
		c-0.3-0.1-0.6-0.2-0.8-0.4c-0.2-0.2-0.4-0.3-0.6-0.5c-0.2-0.2-0.3-0.3-0.3-0.4l-0.1-0.2h0c0,0.2,0,0.5,0,0.8v4.3H118z M119.8,59.3
		c0,0.9,0.2,1.7,0.7,2.4c0.5,0.7,1.1,1,2,1c0.8,0,1.4-0.3,2-0.9c0.5-0.6,0.8-1.4,0.8-2.5c0-1-0.2-1.9-0.7-2.5
		c-0.5-0.6-1.1-0.9-1.9-0.9c-0.8,0-1.4,0.3-2,0.9S119.8,58.2,119.8,59.3z"/>
	<path d="M129.3,64v-9.5h1.8v1.7l0,0.7h0c0.2-0.7,0.6-1.3,1.1-1.8c0.5-0.5,1.2-0.7,1.9-0.7l0.5,0v1.8c-0.2,0-0.3-0.1-0.5-0.1
		c-0.6,0-1.1,0.2-1.6,0.6s-0.8,0.9-1.1,1.6c-0.2,0.5-0.2,1.1-0.2,1.7V64H129.3z"/>
	<path d="M135.6,59.3c0-1.5,0.4-2.7,1.3-3.6s2-1.4,3.4-1.4c1.3,0,2.3,0.4,3,1.3c0.7,0.8,1.1,1.9,1.1,3.2l-0.1,0.8h-6.9
		c0,1,0.4,1.8,1,2.3c0.6,0.5,1.4,0.8,2.3,0.8c0.5,0,1-0.1,1.4-0.3c0.5-0.2,0.8-0.4,1-0.5l0.3-0.3l0.8,1.3c-0.1,0.1-0.3,0.2-0.5,0.4
		s-0.6,0.4-1.3,0.6s-1.3,0.4-2,0.4c-1.5,0-2.7-0.5-3.6-1.4S135.6,60.7,135.6,59.3z M137.6,58.2h5.1c0-0.8-0.3-1.4-0.7-1.8
		c-0.4-0.4-1-0.6-1.6-0.6c-0.7,0-1.3,0.2-1.8,0.6C138,56.8,137.7,57.4,137.6,58.2z"/>
	<path d="M146,62.9l0.9-1.3c0.1,0.1,0.2,0.2,0.3,0.3s0.5,0.3,0.9,0.5c0.5,0.2,1,0.3,1.4,0.3c0.4,0,0.8-0.1,1.1-0.3
		c0.3-0.2,0.5-0.5,0.5-0.9c0-0.3-0.2-0.6-0.5-0.8c-0.3-0.2-0.7-0.4-1.2-0.6c-0.5-0.2-1-0.4-1.4-0.6c-0.5-0.2-0.9-0.5-1.2-0.9
		c-0.3-0.4-0.5-0.9-0.5-1.5c0-0.8,0.3-1.5,1-2c0.7-0.5,1.5-0.7,2.5-0.7c0.6,0,1.2,0.1,1.7,0.3c0.5,0.2,0.9,0.4,1.1,0.5l0.3,0.3
		l-0.7,1.4c-0.1-0.1-0.2-0.1-0.3-0.2c-0.1-0.1-0.4-0.2-0.8-0.4c-0.4-0.2-0.8-0.2-1.3-0.2c-0.4,0-0.8,0.1-1.1,0.3s-0.5,0.5-0.5,0.9
		c0,0.3,0.2,0.6,0.5,0.8c0.3,0.2,0.7,0.4,1.2,0.6c0.5,0.2,1,0.4,1.4,0.6c0.5,0.2,0.9,0.5,1.2,0.9c0.3,0.4,0.5,0.9,0.5,1.5
		c0,0.8-0.3,1.5-1,2c-0.6,0.5-1.5,0.8-2.5,0.8c-0.7,0-1.3-0.1-1.9-0.3s-1-0.5-1.3-0.7L146,62.9z"/>
	<path d="M154.4,61.4c0-2.2,1.9-3.3,5.7-3.3h0.4v-0.2c0-1.4-0.7-2.1-2.1-2.1c-0.4,0-0.9,0.1-1.3,0.2s-0.8,0.3-1,0.5l-0.3,0.2
		l-0.8-1.3c0.1-0.1,0.2-0.2,0.4-0.3c0.2-0.1,0.6-0.3,1.2-0.5c0.6-0.2,1.2-0.3,1.9-0.3c1.2,0,2.1,0.3,2.8,1c0.7,0.6,1,1.6,1,2.8v6
		h-1.7v-0.9l0-0.8h0c0,0-0.1,0.1-0.1,0.2s-0.2,0.2-0.3,0.5s-0.4,0.4-0.6,0.6c-0.2,0.2-0.5,0.3-0.9,0.5s-0.8,0.2-1.2,0.2
		c-0.9,0-1.6-0.3-2.3-0.8C154.7,63,154.4,62.3,154.4,61.4z M156.2,61.3c0,0.4,0.2,0.8,0.5,1.1c0.3,0.3,0.8,0.5,1.3,0.5
		c0.7,0,1.3-0.3,1.8-0.9c0.5-0.6,0.7-1.3,0.7-2.1v-0.3h-0.5C157.5,59.5,156.2,60.1,156.2,61.3z"/>
	<path d="M165.1,64v-9.5h1.8v1.7l0,0.7h0c0.2-0.7,0.6-1.3,1.1-1.8c0.5-0.5,1.2-0.7,1.9-0.7l0.5,0v1.8c-0.2,0-0.3-0.1-0.5-0.1
		c-0.6,0-1.1,0.2-1.6,0.6c-0.5,0.4-0.8,0.9-1.1,1.6c-0.2,0.5-0.2,1.1-0.2,1.7V64H165.1z"/>
	<path d="M172.1,52.6v-1.9h1.8v1.9H172.1z M172.1,64v-9.5h1.8V64H172.1z"/>
	<path d="M176,61.4c0-2.2,1.9-3.3,5.7-3.3h0.4v-0.2c0-1.4-0.7-2.1-2.1-2.1c-0.4,0-0.9,0.1-1.3,0.2s-0.8,0.3-1,0.5l-0.3,0.2l-0.8-1.3
		c0.1-0.1,0.2-0.2,0.4-0.3c0.2-0.1,0.6-0.3,1.2-0.5c0.6-0.2,1.2-0.3,1.9-0.3c1.2,0,2.1,0.3,2.8,1c0.7,0.6,1,1.6,1,2.8v6h-1.7v-0.9
		l0-0.8h0c0,0-0.1,0.1-0.1,0.2s-0.2,0.2-0.3,0.5s-0.4,0.4-0.6,0.6c-0.2,0.2-0.5,0.3-0.9,0.5s-0.8,0.2-1.2,0.2
		c-0.9,0-1.6-0.3-2.3-0.8C176.4,63,176,62.3,176,61.4z M177.9,61.3c0,0.4,0.2,0.8,0.5,1.1c0.3,0.3,0.8,0.5,1.3,0.5
		c0.7,0,1.3-0.3,1.8-0.9c0.5-0.6,0.7-1.3,0.7-2.1v-0.3h-0.5C179.2,59.5,177.9,60.1,177.9,61.3z"/>
	<path d="M186.6,61.4V50.8h1.8v10.4c0,0.5,0.1,0.9,0.3,1.1c0.2,0.2,0.4,0.3,0.8,0.3l0.3,0v1.6c-0.2,0-0.4,0-0.6,0
		C187.5,64.1,186.6,63.2,186.6,61.4z"/>
</g>
</svg>
