<?xml version="1.0" encoding="utf-8"?>
<!-- Generator: Adobe Illustrator 16.0.0, SVG Export Plug-In . SVG Version: 6.00 Build 0)  -->
<!DOCTYPE svg PUBLIC "-//W3C//DTD SVG 1.1//EN" "http://www.w3.org/Graphics/SVG/1.1/DTD/svg11.dtd">
<svg version="1.1" id="Layer_1" xmlns="http://www.w3.org/2000/svg" xmlns:xlink="http://www.w3.org/1999/xlink" x="0px" y="0px"
	 width="336px" height="76px" viewBox="0 0 336 76" enable-background="new 0 0 336 76" xml:space="preserve">
<g>
	<g>
		<polygon fill="#C32029" points="132.476,6.223 116.021,24.852 132.476,43.484 148.933,24.852 		"/>
		<rect x="148.991" y="2.614" fill="#394970" width="10.135" height="42.156"/>
		<rect x="148.991" y="2.614" fill="#253150" width="10.135" height="22.178"/>
		<rect x="105.888" y="2.614" fill="#394970" width="10.133" height="42.156"/>
		<rect x="105.888" y="2.614" fill="#253150" width="10.133" height="22.178"/>
		<polygon fill="#9E1D2D" points="116.023,24.854 148.931,24.854 132.476,6.223 		"/>
		<g>
			<path fill="#222425" d="M170.781,20.835c0.516-0.077,1.129-0.135,1.801-0.135c1.216,0,2.081,0.281,2.655,0.816
				c0.584,0.535,0.924,1.294,0.924,2.355c0,1.069-0.33,1.944-0.943,2.549c-0.613,0.611-1.625,0.943-2.899,0.943
				c-0.604,0-1.109-0.029-1.537-0.078V20.835z M171.627,26.634c0.215,0.039,0.526,0.049,0.857,0.049c1.81,0,2.792-1.011,2.792-2.782
				c0.01-1.547-0.866-2.529-2.655-2.529c-0.439,0-0.77,0.039-0.994,0.087V26.634z"/>
			<path fill="#222425" d="M181.454,24.23h-2.548v2.365h2.841v0.711h-3.688v-6.559h3.542v0.71h-2.694v2.073h2.548V24.23z"/>
			<path fill="#222425" d="M186.524,20.835c0.37-0.077,0.953-0.135,1.548-0.135c0.846,0,1.391,0.145,1.8,0.476
				c0.34,0.254,0.545,0.643,0.545,1.158c0,0.633-0.42,1.188-1.109,1.439v0.021c0.622,0.155,1.353,0.672,1.353,1.644
				c0,0.564-0.225,0.992-0.555,1.313c-0.458,0.418-1.196,0.613-2.268,0.613c-0.583,0-1.031-0.038-1.313-0.078V20.835z
				 M187.371,23.521h0.769c0.895,0,1.42-0.468,1.42-1.1c0-0.769-0.583-1.07-1.439-1.07c-0.389,0-0.613,0.029-0.749,0.059V23.521z
				 M187.371,26.664c0.165,0.029,0.407,0.038,0.71,0.038c0.877,0,1.684-0.321,1.684-1.273c0-0.896-0.77-1.265-1.692-1.265h-0.701
				V26.664z"/>
			<path fill="#222425" d="M192.596,20.835c0.429-0.087,1.042-0.135,1.625-0.135c0.906,0,1.488,0.165,1.897,0.534
				c0.331,0.292,0.517,0.74,0.517,1.246c0,0.865-0.545,1.44-1.236,1.673v0.029c0.506,0.176,0.807,0.642,0.963,1.323
				c0.215,0.915,0.37,1.546,0.506,1.801h-0.876c-0.106-0.187-0.252-0.751-0.438-1.567c-0.194-0.904-0.544-1.246-1.313-1.273h-0.798
				v2.841h-0.847V20.835z M193.442,23.822h0.866c0.904,0,1.479-0.496,1.479-1.245c0-0.847-0.613-1.216-1.509-1.226
				c-0.408,0-0.7,0.039-0.837,0.078V23.822z"/>
			<path fill="#222425" d="M204.243,23.959c0,2.258-1.372,3.454-3.046,3.454c-1.731,0-2.948-1.343-2.948-3.327
				c0-2.083,1.295-3.444,3.047-3.444C203.085,20.642,204.243,22.013,204.243,23.959z M199.154,24.065
				c0,1.401,0.759,2.656,2.093,2.656c1.342,0,2.102-1.235,2.102-2.725c0-1.303-0.683-2.666-2.093-2.666
				C199.855,21.331,199.154,22.626,199.154,24.065z M202.666,19.24l-1.235,1.129h-0.699l0.904-1.129H202.666z"/>
			<path fill="#222425" d="M206.149,20.748h0.848v3.163h0.029c0.175-0.254,0.35-0.487,0.516-0.701l2.004-2.462h1.051l-2.374,2.783
				l2.56,3.775h-1.002l-2.16-3.221l-0.623,0.719v2.502h-0.848V20.748z"/>
			<path fill="#222425" d="M215.628,24.23h-2.55v2.365h2.842v0.711h-3.688v-6.559h3.54v0.71h-2.694v2.073h2.55V24.23z"/>
			<path fill="#222425" d="M217.825,20.835c0.43-0.087,1.043-0.135,1.627-0.135c0.904,0,1.488,0.165,1.897,0.534
				c0.33,0.292,0.516,0.74,0.516,1.246c0,0.865-0.546,1.44-1.236,1.673v0.029c0.506,0.176,0.807,0.642,0.963,1.323
				c0.214,0.915,0.37,1.546,0.506,1.801h-0.875c-0.106-0.187-0.253-0.751-0.438-1.567c-0.194-0.904-0.545-1.246-1.313-1.273h-0.797
				v2.841h-0.849V20.835z M218.674,23.822h0.864c0.906,0,1.479-0.496,1.479-1.245c0-0.847-0.612-1.216-1.508-1.226
				c-0.409,0-0.701,0.039-0.836,0.078V23.822z"/>
			<path fill="#222425" d="M223.752,26.274c0.38,0.232,0.935,0.428,1.518,0.428c0.867,0,1.372-0.458,1.372-1.118
				c0-0.613-0.35-0.964-1.235-1.305c-1.069-0.379-1.731-0.934-1.731-1.857c0-1.021,0.846-1.78,2.121-1.78
				c0.671,0,1.157,0.155,1.449,0.32l-0.233,0.691c-0.214-0.117-0.652-0.312-1.246-0.312c-0.895,0-1.235,0.536-1.235,0.983
				c0,0.613,0.399,0.915,1.305,1.266c1.109,0.428,1.673,0.962,1.673,1.926c0,1.012-0.75,1.887-2.297,1.887
				c-0.631,0-1.321-0.185-1.673-0.419L223.752,26.274z"/>
		</g>
		<g>
			<path fill="#222425" d="M172.532,14.609l-0.692,2.095h-0.889l2.263-6.662h1.038l2.273,6.662h-0.919l-0.711-2.095H172.532z
				 M174.718,13.938l-0.652-1.918c-0.149-0.436-0.248-0.83-0.347-1.216h-0.02c-0.1,0.396-0.209,0.801-0.336,1.205l-0.652,1.929
				H174.718z"/>
			<path fill="#222425" d="M177.999,15.656c0.387,0.238,0.95,0.436,1.543,0.436c0.879,0,1.394-0.465,1.394-1.136
				c0-0.624-0.355-0.979-1.255-1.325c-1.088-0.386-1.76-0.949-1.76-1.889c0-1.038,0.859-1.809,2.154-1.809
				c0.683,0,1.178,0.158,1.474,0.326l-0.237,0.702c-0.218-0.119-0.662-0.317-1.265-0.317c-0.91,0-1.256,0.545-1.256,0.998
				c0,0.624,0.404,0.931,1.324,1.286c1.127,0.436,1.7,0.979,1.7,1.958c0,1.026-0.761,1.917-2.333,1.917
				c-0.643,0-1.344-0.188-1.7-0.425L177.999,15.656z"/>
			<path fill="#222425" d="M189.389,13.305c0,2.293-1.395,3.509-3.095,3.509c-1.76,0-2.994-1.364-2.994-3.381
				c0-2.115,1.314-3.499,3.094-3.499C188.212,9.934,189.389,11.327,189.389,13.305z M184.218,13.413
				c0,1.424,0.771,2.699,2.125,2.699c1.364,0,2.136-1.256,2.136-2.769c0-1.324-0.691-2.709-2.126-2.709
				C184.93,10.635,184.218,11.949,184.218,13.413z"/>
			<path fill="#222425" d="M195.863,16.487c-0.315,0.157-0.948,0.316-1.759,0.316c-1.878,0-3.292-1.186-3.292-3.371
				c0-2.085,1.414-3.499,3.479-3.499c0.831,0,1.354,0.178,1.581,0.296l-0.207,0.703c-0.325-0.159-0.79-0.277-1.344-0.277
				c-1.562,0-2.6,0.998-2.6,2.748c0,1.631,0.939,2.679,2.56,2.679c0.524,0,1.059-0.109,1.403-0.276L195.863,16.487z"/>
			<path fill="#222425" d="M198.514,10.042v6.662h-0.859v-6.662H198.514z"/>
			<path fill="#222425" d="M201.806,14.609l-0.691,2.095h-0.891l2.266-6.662h1.038l2.272,6.662h-0.919l-0.712-2.095H201.806z
				 M203.99,13.938l-0.651-1.918c-0.148-0.436-0.248-0.83-0.346-1.216h-0.021c-0.099,0.396-0.208,0.801-0.336,1.205l-0.652,1.929
				H203.99z"/>
			<path fill="#222425" d="M211.702,16.487c-0.317,0.157-0.948,0.316-1.76,0.316c-1.877,0-3.291-1.186-3.291-3.371
				c0-2.085,1.414-3.499,3.479-3.499c0.831,0,1.354,0.178,1.582,0.296l-0.208,0.703c-0.325-0.159-0.79-0.277-1.344-0.277
				c-1.562,0-2.6,0.998-2.6,2.748c0,1.631,0.939,2.679,2.56,2.679c0.524,0,1.059-0.109,1.404-0.276L211.702,16.487z"/>
			<path fill="#222425" d="M214.353,10.042v6.662h-0.86v-6.662H214.353z"/>
			<path fill="#222425" d="M222.261,13.305c0,2.293-1.394,3.509-3.094,3.509c-1.76,0-2.995-1.364-2.995-3.381
				c0-2.115,1.314-3.499,3.093-3.499C221.084,9.934,222.261,11.327,222.261,13.305z M217.091,13.413
				c0,1.424,0.771,2.699,2.126,2.699c1.363,0,2.135-1.256,2.135-2.769c0-1.324-0.692-2.709-2.125-2.709
				C217.802,10.635,217.091,11.949,217.091,13.413z M220.659,8.51l-1.255,1.147h-0.712l0.919-1.147H220.659z"/>
			<path fill="#222425" d="M224.091,16.704v-6.662h0.939l2.135,3.371c0.494,0.78,0.88,1.483,1.196,2.165l0.02-0.01
				c-0.079-0.89-0.1-1.7-0.1-2.738v-2.788h0.811v6.662h-0.869l-2.115-3.38c-0.464-0.741-0.909-1.503-1.245-2.225l-0.029,0.011
				c0.048,0.839,0.069,1.641,0.069,2.748v2.846H224.091z"/>
		</g>
		<g>
			<path fill="#222425" d="M172.123,31.515v2.534h2.931v-2.534h0.792v6.059h-0.792v-2.841h-2.931v2.841h-0.781v-6.059H172.123z"/>
			<path fill="#222425" d="M178.262,31.515v6.059h-0.781v-6.059H178.262z"/>
			<path fill="#222425" d="M179.908,31.587c0.377-0.063,0.871-0.117,1.5-0.117c0.773,0,1.34,0.181,1.698,0.503
				c0.334,0.289,0.531,0.729,0.531,1.269c0,0.548-0.161,0.979-0.467,1.295c-0.414,0.44-1.088,0.664-1.853,0.664
				c-0.233,0-0.449-0.01-0.629-0.053v2.426h-0.781V31.587z M180.689,34.509c0.171,0.044,0.387,0.063,0.647,0.063
				c0.943,0,1.52-0.46,1.52-1.295c0-0.801-0.566-1.188-1.43-1.188c-0.342,0-0.603,0.027-0.737,0.063V34.509z"/>
			<path fill="#222425" d="M190.146,34.482c0,2.085-1.269,3.19-2.813,3.19c-1.601,0-2.725-1.241-2.725-3.075
				c0-1.923,1.196-3.183,2.814-3.183C189.075,31.415,190.146,32.684,190.146,34.482z M185.443,34.581
				c0,1.293,0.702,2.453,1.934,2.453c1.239,0,1.941-1.142,1.941-2.518c0-1.203-0.63-2.463-1.933-2.463
				C186.091,32.054,185.443,33.25,185.443,34.581z"/>
			<path fill="#222425" d="M192.319,32.181h-1.842v-0.666h4.484v0.666h-1.852v5.393h-0.791V32.181z"/>
			<path fill="#222425" d="M199.052,34.732h-2.355v2.187h2.625v0.654h-3.407v-6.059h3.272v0.656h-2.49v1.914h2.355V34.732z"/>
			<path fill="#222425" d="M204.804,37.375c-0.287,0.145-0.863,0.289-1.6,0.289c-1.708,0-2.993-1.079-2.993-3.066
				c0-1.896,1.285-3.183,3.163-3.183c0.755,0,1.231,0.163,1.438,0.271l-0.188,0.639c-0.296-0.144-0.719-0.252-1.222-0.252
				c-1.421,0-2.365,0.909-2.365,2.5c0,1.482,0.854,2.435,2.328,2.435c0.477,0,0.963-0.099,1.276-0.251L204.804,37.375z"/>
			<path fill="#222425" d="M206.987,35.667l-0.629,1.906h-0.81l2.059-6.059h0.944l2.067,6.059h-0.836l-0.647-1.906H206.987z
				 M208.974,35.058l-0.593-1.744c-0.135-0.396-0.226-0.756-0.315-1.106h-0.018c-0.09,0.359-0.189,0.729-0.306,1.097l-0.593,1.754
				H208.974z"/>
			<path fill="#222425" d="M211.786,31.596c0.396-0.081,0.963-0.126,1.501-0.126c0.837,0,1.377,0.153,1.754,0.494
				c0.306,0.271,0.477,0.684,0.477,1.15c0,0.802-0.504,1.332-1.143,1.546v0.027c0.468,0.162,0.747,0.594,0.891,1.223
				c0.198,0.846,0.342,1.429,0.468,1.663h-0.81c-0.099-0.171-0.234-0.69-0.404-1.446c-0.18-0.837-0.504-1.15-1.213-1.178h-0.738
				v2.624h-0.782V31.596z M212.568,34.355h0.8c0.836,0,1.366-0.458,1.366-1.15c0-0.783-0.565-1.124-1.393-1.133
				c-0.377,0-0.647,0.036-0.773,0.072V34.355z"/>
			<path fill="#222425" d="M217.684,31.515v6.059H216.9v-6.059H217.684z"/>
			<path fill="#222425" d="M224.505,34.482c0,2.085-1.267,3.19-2.813,3.19c-1.601,0-2.723-1.241-2.723-3.075
				c0-1.923,1.194-3.183,2.812-3.183C223.436,31.415,224.505,32.684,224.505,34.482z M219.805,34.581
				c0,1.293,0.699,2.453,1.933,2.453c1.239,0,1.941-1.142,1.941-2.518c0-1.203-0.63-2.463-1.934-2.463
				C220.451,32.054,219.805,33.25,219.805,34.581z"/>
			<path fill="#222425" d="M225.646,36.621c0.351,0.215,0.863,0.395,1.402,0.395c0.801,0,1.268-0.422,1.268-1.033
				c0-0.566-0.323-0.889-1.142-1.205c-0.988-0.35-1.6-0.861-1.6-1.717c0-0.943,0.781-1.646,1.96-1.646
				c0.619,0,1.069,0.145,1.338,0.298l-0.216,0.637c-0.197-0.106-0.602-0.286-1.149-0.286c-0.827,0-1.142,0.494-1.142,0.908
				c0,0.565,0.368,0.845,1.204,1.168c1.025,0.396,1.546,0.891,1.546,1.78c0,0.934-0.691,1.744-2.121,1.744
				c-0.584,0-1.223-0.172-1.547-0.389L225.646,36.621z"/>
		</g>
		<g>
			<path fill="#212223" d="M171.104,42.52v1.434c0,0.543,0.24,0.772,0.564,0.772c0.359,0,0.59-0.236,0.59-0.772V42.52h0.316v1.412
				c0,0.743-0.393,1.05-0.917,1.05c-0.496,0-0.87-0.285-0.87-1.035V42.52H171.104z"/>
			<path fill="#212223" d="M173.358,43.672c0-0.179-0.004-0.326-0.015-0.471h0.28l0.018,0.289h0.007
				c0.087-0.166,0.289-0.328,0.575-0.328c0.241,0,0.614,0.144,0.614,0.741v1.039h-0.315v-1.003c0-0.282-0.104-0.515-0.402-0.515
				c-0.209,0-0.37,0.148-0.424,0.323c-0.016,0.039-0.022,0.094-0.022,0.147v1.047h-0.315V43.672z"/>
			<path fill="#212223" d="M175.957,42.713c0.004,0.107-0.075,0.194-0.201,0.194c-0.111,0-0.19-0.087-0.19-0.194
				c0-0.11,0.083-0.197,0.197-0.197C175.882,42.516,175.957,42.603,175.957,42.713z M175.604,44.942v-1.741h0.317v1.741H175.604z"/>
			<path fill="#212223" d="M178.199,42.39v2.104c0,0.153,0.004,0.33,0.015,0.449h-0.284l-0.015-0.302h-0.007
				c-0.097,0.193-0.309,0.341-0.593,0.341c-0.421,0-0.743-0.356-0.743-0.886c-0.004-0.577,0.355-0.934,0.779-0.934
				c0.266,0,0.446,0.126,0.525,0.267h0.007V42.39H178.199z M177.884,43.91c0-0.04-0.004-0.094-0.015-0.134
				c-0.048-0.2-0.219-0.366-0.456-0.366c-0.328,0-0.522,0.287-0.522,0.672c0,0.354,0.174,0.644,0.516,0.644
				c0.211,0,0.405-0.141,0.463-0.377c0.011-0.043,0.015-0.087,0.015-0.137V43.91z"/>
			<path fill="#212223" d="M180.551,44.059c0,0.642-0.445,0.923-0.866,0.923c-0.471,0-0.834-0.346-0.834-0.895
				c0-0.583,0.381-0.925,0.862-0.925C180.214,43.162,180.551,43.526,180.551,44.059z M179.171,44.076
				c0,0.381,0.219,0.667,0.528,0.667c0.302,0,0.528-0.283,0.528-0.674c0-0.296-0.148-0.67-0.521-0.67S179.171,43.744,179.171,44.076
				z"/>
			<path fill="#212223" d="M181.147,44.617c0.095,0.062,0.26,0.126,0.417,0.126c0.23,0,0.339-0.115,0.339-0.258
				c0-0.151-0.091-0.234-0.324-0.321c-0.312-0.109-0.46-0.283-0.46-0.492c0-0.279,0.227-0.51,0.6-0.51
				c0.177,0,0.332,0.05,0.429,0.107l-0.079,0.231c-0.069-0.044-0.195-0.102-0.355-0.102c-0.188,0-0.293,0.108-0.293,0.236
				c0,0.145,0.105,0.21,0.331,0.296c0.304,0.114,0.458,0.266,0.458,0.525c0,0.305-0.238,0.521-0.65,0.521
				c-0.191,0-0.367-0.047-0.49-0.119L181.147,44.617z"/>
			<path fill="#212223" d="M183.861,44.942c0.008-0.119,0.015-0.296,0.015-0.449V42.39h0.313v1.093h0.007
				c0.112-0.194,0.313-0.32,0.593-0.32c0.431,0,0.736,0.36,0.733,0.887c0,0.623-0.393,0.933-0.78,0.933
				c-0.251,0-0.453-0.097-0.581-0.328h-0.012l-0.015,0.289H183.861z M184.189,44.244c0,0.039,0.007,0.079,0.015,0.115
				c0.061,0.22,0.244,0.37,0.474,0.37c0.331,0,0.528-0.27,0.528-0.668c0-0.35-0.18-0.647-0.518-0.647
				c-0.215,0-0.416,0.148-0.482,0.388c-0.006,0.036-0.017,0.079-0.017,0.13V44.244z"/>
			<path fill="#212223" d="M187.137,44.942l-0.025-0.221h-0.011c-0.098,0.138-0.284,0.26-0.531,0.26
				c-0.353,0-0.532-0.249-0.532-0.499c0-0.421,0.373-0.651,1.045-0.648v-0.035c0-0.143-0.039-0.402-0.395-0.402
				c-0.161,0-0.331,0.05-0.453,0.13l-0.072-0.21c0.145-0.092,0.354-0.154,0.571-0.154c0.533,0,0.662,0.364,0.662,0.712v0.651
				c0,0.149,0.007,0.298,0.028,0.417H187.137z M187.09,44.055c-0.346-0.009-0.737,0.052-0.737,0.392
				c0,0.203,0.138,0.301,0.299,0.301c0.228,0,0.37-0.145,0.421-0.29c0.01-0.033,0.018-0.068,0.018-0.102V44.055z"/>
			<path fill="#212223" d="M187.73,45.445c0.144-0.011,0.27-0.053,0.344-0.134c0.087-0.101,0.119-0.236,0.119-0.654v-1.456h0.316
				v1.578c0,0.338-0.054,0.558-0.209,0.717c-0.14,0.139-0.369,0.196-0.538,0.196L187.73,45.445z M188.545,42.713
				c0.005,0.104-0.071,0.194-0.197,0.194c-0.118,0-0.193-0.09-0.193-0.194c0-0.11,0.083-0.197,0.201-0.197
				C188.471,42.516,188.545,42.603,188.545,42.713z"/>
			<path fill="#212223" d="M190.85,44.059c0,0.642-0.444,0.923-0.866,0.923c-0.471,0-0.834-0.346-0.834-0.895
				c0-0.583,0.382-0.925,0.863-0.925C190.512,43.162,190.85,43.526,190.85,44.059z M189.47,44.076c0,0.381,0.219,0.667,0.527,0.667
				c0.303,0,0.529-0.283,0.529-0.674c0-0.296-0.147-0.67-0.521-0.67C189.632,43.399,189.47,43.744,189.47,44.076z"/>
			<path fill="#212223" d="M193.971,44.468c0,0.179,0.003,0.337,0.013,0.475h-0.279l-0.018-0.285h-0.008
				c-0.083,0.141-0.266,0.324-0.575,0.324c-0.273,0-0.6-0.151-0.6-0.763v-1.018h0.316v0.963c0,0.332,0.101,0.555,0.388,0.555
				c0.212,0,0.359-0.146,0.418-0.287c0.017-0.047,0.028-0.104,0.028-0.162v-1.068h0.316V44.468z"/>
			<path fill="#212223" d="M194.747,43.672c0-0.179-0.004-0.326-0.014-0.471h0.279l0.019,0.289h0.007
				c0.086-0.166,0.288-0.328,0.575-0.328c0.24,0,0.614,0.144,0.614,0.741v1.039h-0.316v-1.003c0-0.282-0.104-0.515-0.402-0.515
				c-0.208,0-0.37,0.148-0.424,0.323c-0.015,0.039-0.021,0.094-0.021,0.147v1.047h-0.316V43.672z"/>
			<path fill="#212223" d="M197.957,44.942l-0.025-0.221h-0.011c-0.097,0.138-0.283,0.26-0.531,0.26
				c-0.353,0-0.532-0.249-0.532-0.499c0-0.421,0.373-0.651,1.046-0.648v-0.035c0-0.143-0.039-0.402-0.396-0.402
				c-0.162,0-0.33,0.05-0.453,0.13l-0.071-0.21c0.144-0.092,0.352-0.154,0.571-0.154c0.532,0,0.662,0.364,0.662,0.712v0.651
				c0,0.149,0.006,0.298,0.027,0.417H197.957z M197.911,44.055c-0.346-0.009-0.737,0.052-0.737,0.392
				c0,0.203,0.136,0.301,0.298,0.301c0.227,0,0.37-0.145,0.42-0.29c0.012-0.033,0.02-0.068,0.02-0.102V44.055z"/>
			<path fill="#212223" d="M199.988,43.672c0-0.179-0.004-0.326-0.014-0.471h0.276l0.014,0.281h0.011
				c0.097-0.166,0.259-0.32,0.547-0.32c0.237,0,0.417,0.144,0.492,0.35h0.007c0.054-0.098,0.122-0.173,0.194-0.228
				c0.104-0.079,0.219-0.122,0.385-0.122c0.23,0,0.571,0.151,0.571,0.755v1.025h-0.309v-0.985c0-0.335-0.122-0.535-0.378-0.535
				c-0.181,0-0.32,0.131-0.374,0.286c-0.014,0.044-0.025,0.102-0.025,0.159v1.075h-0.309v-1.043c0-0.277-0.122-0.478-0.363-0.478
				c-0.196,0-0.342,0.158-0.391,0.315c-0.019,0.047-0.026,0.101-0.026,0.155v1.05h-0.309V43.672z"/>
			<path fill="#212223" d="M203.59,42.713c0.004,0.107-0.075,0.194-0.2,0.194c-0.111,0-0.191-0.087-0.191-0.194
				c0-0.11,0.082-0.197,0.198-0.197C203.515,42.516,203.59,42.603,203.59,42.713z M203.238,44.942v-1.741h0.315v1.741H203.238z"/>
			<path fill="#212223" d="M204.288,44.617c0.094,0.062,0.258,0.126,0.416,0.126c0.23,0,0.338-0.115,0.338-0.258
				c0-0.151-0.089-0.234-0.323-0.321c-0.312-0.109-0.46-0.283-0.46-0.492c0-0.279,0.227-0.51,0.601-0.51
				c0.177,0,0.331,0.05,0.427,0.107l-0.078,0.231c-0.068-0.044-0.194-0.102-0.356-0.102c-0.187,0-0.29,0.108-0.29,0.236
				c0,0.145,0.104,0.21,0.329,0.296c0.303,0.114,0.457,0.266,0.457,0.525c0,0.305-0.237,0.521-0.65,0.521
				c-0.19,0-0.367-0.047-0.488-0.119L204.288,44.617z"/>
			<path fill="#212223" d="M206.005,43.672c0-0.179-0.003-0.326-0.013-0.471h0.275l0.015,0.281h0.012
				c0.097-0.166,0.258-0.32,0.546-0.32c0.237,0,0.417,0.144,0.492,0.35h0.007c0.054-0.098,0.122-0.173,0.194-0.228
				c0.104-0.079,0.219-0.122,0.384-0.122c0.231,0,0.572,0.151,0.572,0.755v1.025h-0.309v-0.985c0-0.335-0.123-0.535-0.378-0.535
				c-0.18,0-0.32,0.131-0.374,0.286c-0.014,0.044-0.024,0.102-0.024,0.159v1.075h-0.31v-1.043c0-0.277-0.122-0.478-0.362-0.478
				c-0.198,0-0.342,0.158-0.392,0.315c-0.019,0.047-0.026,0.101-0.026,0.155v1.05h-0.31V43.672z"/>
			<path fill="#212223" d="M210.218,44.942l-0.024-0.221h-0.012c-0.096,0.138-0.283,0.26-0.531,0.26
				c-0.353,0-0.531-0.249-0.531-0.499c0-0.421,0.374-0.651,1.047-0.648v-0.035c0-0.143-0.041-0.402-0.396-0.402
				c-0.162,0-0.331,0.05-0.452,0.13l-0.072-0.21c0.144-0.092,0.352-0.154,0.571-0.154c0.532,0,0.661,0.364,0.661,0.712v0.651
				c0,0.149,0.007,0.298,0.029,0.417H210.218z M210.172,44.055c-0.345-0.009-0.736,0.052-0.736,0.392
				c0,0.203,0.136,0.301,0.298,0.301c0.227,0,0.37-0.145,0.421-0.29c0.012-0.033,0.018-0.068,0.018-0.102V44.055z"/>
			<path fill="#212223" d="M212.574,42.52v2.423h-0.313V42.52H212.574z"/>
			<path fill="#212223" d="M213.361,43.672c0-0.179-0.004-0.326-0.015-0.471h0.279l0.02,0.289h0.007
				c0.086-0.166,0.287-0.328,0.575-0.328c0.24,0,0.614,0.144,0.614,0.741v1.039h-0.316v-1.003c0-0.282-0.104-0.515-0.403-0.515
				c-0.207,0-0.369,0.148-0.424,0.323c-0.014,0.039-0.021,0.094-0.021,0.147v1.047h-0.315V43.672z"/>
			<path fill="#212223" d="M215.564,44.617c0.093,0.062,0.259,0.126,0.417,0.126c0.229,0,0.337-0.115,0.337-0.258
				c0-0.151-0.089-0.234-0.322-0.321c-0.312-0.109-0.46-0.283-0.46-0.492c0-0.279,0.226-0.51,0.601-0.51
				c0.175,0,0.33,0.05,0.427,0.107l-0.079,0.231c-0.067-0.044-0.193-0.102-0.356-0.102c-0.187,0-0.29,0.108-0.29,0.236
				c0,0.145,0.104,0.21,0.331,0.296c0.301,0.114,0.455,0.266,0.455,0.525c0,0.305-0.237,0.521-0.65,0.521
				c-0.189,0-0.366-0.047-0.488-0.119L215.564,44.617z"/>
			<path fill="#212223" d="M217.625,42.701v0.5h0.451v0.242h-0.451v0.938c0,0.215,0.06,0.338,0.236,0.338
				c0.083,0,0.144-0.012,0.184-0.022l0.015,0.236c-0.062,0.027-0.158,0.046-0.281,0.046c-0.146,0-0.266-0.047-0.342-0.134
				c-0.089-0.094-0.121-0.249-0.121-0.453v-0.948h-0.269v-0.242h0.269v-0.417L217.625,42.701z"/>
			<path fill="#212223" d="M219.037,42.713c0.003,0.107-0.075,0.194-0.201,0.194c-0.112,0-0.191-0.087-0.191-0.194
				c0-0.11,0.083-0.197,0.198-0.197C218.962,42.516,219.037,42.603,219.037,42.713z M218.686,44.942v-1.741h0.315v1.741H218.686z"/>
			<path fill="#212223" d="M220.159,42.701v0.5h0.452v0.242h-0.452v0.938c0,0.215,0.061,0.338,0.237,0.338
				c0.082,0,0.143-0.012,0.183-0.022l0.015,0.236c-0.062,0.027-0.158,0.046-0.28,0.046c-0.147,0-0.266-0.047-0.341-0.134
				c-0.091-0.094-0.123-0.249-0.123-0.453v-0.948h-0.27v-0.242h0.27v-0.417L220.159,42.701z"/>
			<path fill="#212223" d="M222.675,44.468c0,0.179,0.003,0.337,0.014,0.475h-0.28l-0.017-0.285h-0.008
				c-0.083,0.141-0.266,0.324-0.575,0.324c-0.273,0-0.601-0.151-0.601-0.763v-1.018h0.316v0.963c0,0.332,0.101,0.555,0.388,0.555
				c0.213,0,0.36-0.146,0.418-0.287c0.018-0.047,0.028-0.104,0.028-0.162v-1.068h0.316V44.468z"/>
			<path fill="#212223" d="M224.691,44.877c-0.083,0.043-0.266,0.102-0.499,0.102c-0.525,0-0.867-0.357-0.867-0.888
				c0-0.538,0.367-0.924,0.936-0.924c0.187,0,0.352,0.045,0.438,0.089l-0.071,0.245c-0.076-0.044-0.194-0.083-0.366-0.083
				c-0.399,0-0.615,0.294-0.615,0.658c0,0.402,0.258,0.649,0.604,0.649c0.18,0,0.298-0.047,0.389-0.085L224.691,44.877z"/>
			<path fill="#212223" d="M225.666,42.713c0.004,0.107-0.075,0.194-0.201,0.194c-0.112,0-0.191-0.087-0.191-0.194
				c0-0.11,0.083-0.197,0.198-0.197C225.591,42.516,225.666,42.603,225.666,42.713z M225.313,44.942v-1.741h0.316v1.741H225.313z"/>
			<path fill="#212223" d="M227.98,44.059c0,0.642-0.446,0.923-0.866,0.923c-0.471,0-0.833-0.346-0.833-0.895
				c0-0.583,0.38-0.925,0.862-0.925C227.643,43.162,227.98,43.526,227.98,44.059z M226.601,44.076c0,0.381,0.219,0.667,0.528,0.667
				c0.301,0,0.528-0.283,0.528-0.674c0-0.296-0.147-0.67-0.521-0.67S226.601,43.744,226.601,44.076z M227.604,42.451l-0.438,0.514
				h-0.227l0.316-0.514H227.604z"/>
			<path fill="#212223" d="M228.632,43.672c0-0.179-0.003-0.326-0.015-0.471h0.28l0.018,0.289h0.008
				c0.086-0.166,0.287-0.328,0.574-0.328c0.242,0,0.615,0.144,0.615,0.741v1.039h-0.316v-1.003c0-0.282-0.104-0.515-0.401-0.515
				c-0.209,0-0.372,0.148-0.425,0.323c-0.015,0.039-0.022,0.094-0.022,0.147v1.047h-0.315V43.672z"/>
		</g>
	</g>
	<g>
		<path d="M105.888,56.76h1.817v5.688h6.716V56.76h1.816v12.956h-1.816v-5.689h-6.716v5.689h-1.817V56.76z"/>
		<path d="M119.383,56.76h1.798v1.817h-1.798V56.76z M119.402,60.43h1.779v9.286h-1.779V60.43z"/>
		<path d="M123.974,60.43h1.633v0.791c0,0.365-0.036,0.678-0.036,0.678h0.036c0,0,0.789-1.688,3.12-1.688
			c2.496,0,4.074,1.981,4.074,4.861c0,2.956-1.78,4.865-4.202,4.865c-2.037,0-2.845-1.523-2.845-1.523h-0.037
			c0,0,0.037,0.328,0.037,0.808v4.165h-1.78V60.43z M128.323,68.413c1.468,0,2.68-1.211,2.68-3.322c0-2.018-1.083-3.321-2.625-3.321
			c-1.395,0-2.679,0.972-2.679,3.34C125.699,66.761,126.616,68.413,128.323,68.413z"/>
		<path d="M139.321,60.21c2.771,0,5.01,2.036,5.01,4.844c0,2.827-2.239,4.883-5.01,4.883c-2.771,0-5.01-2.056-5.01-4.883
			C134.312,62.246,136.55,60.21,139.321,60.21z M139.321,68.394c1.762,0,3.192-1.395,3.192-3.34c0-1.927-1.431-3.302-3.192-3.302
			c-1.744,0-3.193,1.375-3.193,3.302C136.128,66.999,137.577,68.394,139.321,68.394z"/>
		<path d="M146.833,61.989h-1.213v-1.431h1.268v-2.68h1.725v2.68h2.24v1.431h-2.24v4.13c0,1.854,1.303,2.091,1.982,2.091
			c0.258,0,0.422-0.036,0.422-0.036v1.579c0,0-0.257,0.036-0.623,0.036c-1.193,0-3.561-0.367-3.561-3.468V61.989z"/>
		<path d="M157.021,60.21c2.625,0,4.021,1.946,4.021,4.349c0,0.239-0.056,0.771-0.056,0.771h-6.771
			c0.092,2.038,1.541,3.064,3.192,3.064c1.597,0,2.752-1.083,2.752-1.083l0.734,1.304c0,0-1.375,1.322-3.596,1.322
			c-2.919,0-4.919-2.111-4.919-4.865C152.378,62.118,154.378,60.21,157.021,60.21z M159.223,63.991
			c-0.055-1.596-1.045-2.368-2.238-2.368c-1.357,0-2.459,0.843-2.716,2.368H159.223z"/>
		<path d="M167.523,60.21c2.331,0,3.486,1.356,3.486,1.356l-0.843,1.25c0,0-0.991-1.064-2.569-1.064c-1.873,0-3.23,1.395-3.23,3.302
			c0,1.891,1.357,3.34,3.284,3.34c1.727,0,2.864-1.248,2.864-1.248l0.715,1.304c0,0-1.285,1.487-3.707,1.487
			c-2.918,0-4.973-2.074-4.973-4.865C162.551,62.319,164.605,60.21,167.523,60.21z"/>
		<path d="M178.1,63.916h0.403v-0.165c0-1.522-0.861-2.036-2.038-2.036c-1.43,0-2.586,0.897-2.586,0.897l-0.734-1.302
			c0,0,1.34-1.101,3.469-1.101c2.35,0,3.67,1.285,3.67,3.634v5.872h-1.651v-0.882c0-0.421,0.036-0.732,0.036-0.732h-0.036
			c0,0-0.753,1.835-2.974,1.835c-1.596,0-3.155-0.974-3.155-2.826C172.503,64.045,176.539,63.916,178.1,63.916z M176.044,68.504
			c1.505,0,2.478-1.577,2.478-2.953v-0.295h-0.459c-1.34,0-3.761,0.091-3.761,1.763C174.302,67.771,174.889,68.504,176.044,68.504z"
			/>
		<path d="M182.949,60.43h1.727v1.615c0,0.385-0.038,0.696-0.038,0.696h0.038c0.421-1.357,1.503-2.42,2.936-2.42
			c0.237,0,0.457,0.035,0.457,0.035v1.762c0,0-0.238-0.055-0.512-0.055c-1.139,0-2.185,0.807-2.607,2.184
			c-0.164,0.532-0.221,1.1-0.221,1.672v3.797h-1.779V60.43z"/>
		<path d="M189.816,56.76h1.799v1.817h-1.799V56.76z M189.836,60.43h1.779v9.286h-1.779V60.43z"/>
		<path d="M198.738,60.21c2.77,0,5.01,2.036,5.01,4.844c0,2.827-2.24,4.883-5.01,4.883c-2.771,0-5.01-2.056-5.01-4.883
			C193.729,62.246,195.967,60.21,198.738,60.21z M198.738,68.394c1.761,0,3.191-1.395,3.191-3.34c0-1.927-1.431-3.302-3.191-3.302
			c-1.744,0-3.193,1.375-3.193,3.302C195.545,66.999,196.994,68.394,198.738,68.394z"/>
	</g>
</g>
</svg>
