<?xml version="1.0" encoding="utf-8"?>
<!-- Generator: Adobe Illustrator 16.0.0, SVG Export Plug-In . SVG Version: 6.00 Build 0)  -->
<!DOCTYPE svg PUBLIC "-//W3C//DTD SVG 1.1//EN" "http://www.w3.org/Graphics/SVG/1.1/DTD/svg11.dtd">
<svg version="1.1" id="Layer_1" xmlns="http://www.w3.org/2000/svg" xmlns:xlink="http://www.w3.org/1999/xlink" x="0px" y="0px"
	 width="336px" height="76px" viewBox="0 0 336 76" enable-background="new 0 0 336 76" xml:space="preserve">
<g>
	<g>
		<g>
			<path fill="#9B9A9A" d="M68.523,13.605h7.39l8.124,25.039h-5.918l-1.716-5.568h-9.07l-1.716,5.568h-5.323L68.523,13.605z
				 M68.559,29.049h6.618l-3.292-10.819L68.559,29.049z"/>
			<path fill="#9B9A9A" d="M85.574,29.75v-0.281c0-6.021,3.467-9.56,8.055-9.56c2.941,0,4.763,1.296,5.778,3.152V12.029h5.043
				v26.615h-5.043v-3.046c-0.945,1.854-3.188,3.431-5.885,3.431C89.076,39.029,85.574,35.842,85.574,29.75z M99.547,29.574v-0.279
				c0-3.643-1.61-5.499-4.377-5.499c-2.837,0-4.412,1.926-4.412,5.567v0.281c0,3.643,1.751,5.428,4.271,5.428
				C97.69,35.072,99.547,33.287,99.547,29.574z"/>
			<path fill="#9B9A9A" d="M107.214,20.329h5.429l4.377,13.097l4.343-13.097h4.903l-6.654,18.315h-5.708L107.214,20.329z"/>
			<path fill="#9B9A9A" d="M127.277,33.566c0-4.271,3.922-5.883,9.525-5.883h2.062v-0.736c0-2.17-0.665-3.362-2.979-3.362
				c-1.996,0-2.906,1.016-3.117,2.592h-4.797c0.314-4.343,3.746-6.271,8.229-6.271c4.483,0,7.669,1.821,7.669,6.794v11.94h-4.938
				v-2.207c-1.051,1.472-2.66,2.592-5.532,2.592C130.079,39.029,127.277,37.418,127.277,33.566z M138.868,32.236v-1.541h-1.961
				c-2.94,0-4.657,0.629-4.657,2.592c0,1.33,0.807,2.206,2.661,2.206C137.152,35.493,138.868,34.268,138.868,32.236z"/>
			<path fill="#9B9A9A" d="M148.217,20.329h5.077v2.907c0.91-1.821,2.906-3.327,5.953-3.327c3.606,0,6.163,2.172,6.163,7.074v11.662
				h-5.078V27.719c0-2.487-0.98-3.677-3.222-3.677c-2.171,0-3.816,1.33-3.816,4.027v10.576h-5.077V20.329z"/>
			<path fill="#9B9A9A" d="M168.63,29.715v-0.277c0-5.917,4.236-9.525,9.455-9.525c4.237,0,8.159,1.856,8.614,7.109H181.9
				c-0.351-2.136-1.646-3.117-3.711-3.117c-2.627,0-4.377,1.96-4.377,5.462v0.281c0,3.676,1.646,5.565,4.479,5.565
				c2.031,0,3.68-1.188,3.925-3.537h4.589c-0.281,4.345-3.437,7.354-8.757,7.354C172.691,39.029,168.63,35.704,168.63,29.715z"/>
			<path fill="#9B9A9A" d="M188.868,29.715v-0.277c0-5.778,4.097-9.525,9.42-9.525c4.728,0,8.931,2.767,8.931,9.312v1.4h-13.203
				c0.144,3.047,1.787,4.797,4.557,4.797c2.346,0,3.501-1.016,3.812-2.557h4.799c-0.597,3.958-3.748,6.164-8.756,6.164
				C192.895,39.029,188.868,35.563,188.868,29.715z M202.279,27.508c-0.176-2.766-1.575-4.097-3.991-4.097
				c-2.276,0-3.817,1.506-4.202,4.097H202.279z"/>
			<path fill="#9B9A9A" d="M209.455,29.75v-0.281c0-6.021,3.467-9.56,8.055-9.56c2.941,0,4.764,1.296,5.778,3.152V12.029h5.043
				v26.615h-5.043v-3.046c-0.944,1.854-3.187,3.431-5.884,3.431C212.957,39.029,209.455,35.842,209.455,29.75z M223.428,29.574
				v-0.279c0-3.643-1.607-5.499-4.377-5.499c-2.837,0-4.412,1.926-4.412,5.567v0.281c0,3.643,1.752,5.428,4.271,5.428
				C221.572,35.072,223.428,33.287,223.428,29.574z"/>
		</g>
		<path fill="#9B9A9A" d="M257.516,35.445l-9.209,6.72c-0.736,0.539-1.732-0.185-1.447-1.054l3.545-10.833
			c0.128-0.39-0.012-0.815-0.344-1.058l-9.235-6.679c-0.74-0.536-0.359-1.707,0.554-1.705l11.398,0.025
			c0.41,0.001,0.771-0.263,0.896-0.652l3.499-10.849c0.281-0.87,1.513-0.87,1.793,0l3.498,10.849
			c0.126,0.389,0.489,0.653,0.897,0.652l11.398-0.025c0.914-0.002,1.295,1.168,0.555,1.705l-9.236,6.679
			c-0.331,0.24-0.471,0.668-0.344,1.058l3.548,10.833c0.284,0.869-0.712,1.593-1.45,1.054l-9.207-6.72
			C258.294,35.203,257.846,35.203,257.516,35.445z"/>
	</g>
	<g>
		<path d="M60.294,50.666h1.817v5.688h6.716v-5.688h1.816v12.956h-1.816v-5.689h-6.716v5.689h-1.817V50.666z"/>
		<path d="M73.79,50.666h1.798v1.817H73.79V50.666z M73.808,54.336h1.779v9.286h-1.779V54.336z"/>
		<path d="M78.38,54.336h1.633v0.791c0,0.365-0.036,0.678-0.036,0.678h0.036c0,0,0.789-1.688,3.12-1.688
			c2.496,0,4.074,1.981,4.074,4.861c0,2.956-1.78,4.865-4.202,4.865c-2.038,0-2.845-1.523-2.845-1.523h-0.037
			c0,0,0.037,0.328,0.037,0.808v4.165h-1.78V54.336z M82.729,62.319c1.468,0,2.679-1.211,2.679-3.322
			c0-2.018-1.083-3.321-2.624-3.321c-1.395,0-2.68,0.972-2.68,3.34C80.105,60.667,81.022,62.319,82.729,62.319z"/>
		<path d="M93.728,54.116c2.771,0,5.009,2.036,5.009,4.844c0,2.827-2.239,4.883-5.009,4.883c-2.771,0-5.01-2.056-5.01-4.883
			C88.718,56.152,90.957,54.116,93.728,54.116z M93.728,62.3c1.762,0,3.192-1.395,3.192-3.34c0-1.927-1.431-3.302-3.192-3.302
			c-1.744,0-3.193,1.375-3.193,3.302C90.535,60.905,91.983,62.3,93.728,62.3z"/>
		<path d="M101.239,55.896h-1.212v-1.431h1.267v-2.68h1.726v2.68h2.239v1.431h-2.239v4.13c0,1.854,1.303,2.091,1.982,2.091
			c0.257,0,0.422-0.036,0.422-0.036v1.579c0,0-0.257,0.036-0.624,0.036c-1.193,0-3.56-0.367-3.56-3.468V55.896z"/>
		<path d="M111.427,54.116c2.625,0,4.02,1.946,4.02,4.349c0,0.239-0.055,0.771-0.055,0.771h-6.772
			c0.092,2.038,1.542,3.064,3.193,3.064c1.597,0,2.752-1.083,2.752-1.083l0.734,1.304c0,0-1.375,1.322-3.596,1.322
			c-2.918,0-4.918-2.111-4.918-4.865C106.785,56.024,108.785,54.116,111.427,54.116z M113.629,57.897
			c-0.055-1.596-1.045-2.368-2.239-2.368c-1.357,0-2.458,0.843-2.716,2.368H113.629z"/>
		<path d="M121.93,54.116c2.331,0,3.486,1.356,3.486,1.356l-0.843,1.25c0,0-0.991-1.064-2.569-1.064
			c-1.873,0-3.231,1.395-3.231,3.302c0,1.891,1.358,3.34,3.285,3.34c1.727,0,2.865-1.248,2.865-1.248l0.714,1.304
			c0,0-1.285,1.487-3.707,1.487c-2.918,0-4.973-2.074-4.973-4.865C116.957,56.226,119.012,54.116,121.93,54.116z"/>
		<path d="M132.505,57.822h0.404v-0.165c0-1.522-0.861-2.036-2.038-2.036c-1.431,0-2.586,0.897-2.586,0.897l-0.734-1.302
			c0,0,1.34-1.101,3.469-1.101c2.349,0,3.67,1.285,3.67,3.634v5.872h-1.651V62.74c0-0.421,0.037-0.732,0.037-0.732h-0.037
			c0,0-0.753,1.835-2.973,1.835c-1.596,0-3.156-0.974-3.156-2.826C126.909,57.951,130.945,57.822,132.505,57.822z M130.45,62.41
			c1.505,0,2.478-1.577,2.478-2.953v-0.295h-0.459c-1.34,0-3.761,0.091-3.761,1.763C128.708,61.678,129.294,62.41,130.45,62.41z"/>
		<path d="M137.355,54.336h1.726v1.615c0,0.385-0.038,0.696-0.038,0.696h0.038c0.421-1.357,1.503-2.42,2.936-2.42
			c0.237,0,0.458,0.035,0.458,0.035v1.762c0,0-0.239-0.055-0.513-0.055c-1.138,0-2.184,0.807-2.607,2.184
			c-0.164,0.532-0.22,1.1-0.22,1.672v3.797h-1.78V54.336z"/>
		<path d="M144.223,50.666h1.799v1.817h-1.799V50.666z M144.242,54.336h1.78v9.286h-1.78V54.336z"/>
		<path d="M153.144,54.116c2.771,0,5.01,2.036,5.01,4.844c0,2.827-2.239,4.883-5.01,4.883s-5.01-2.056-5.01-4.883
			C148.134,56.152,150.374,54.116,153.144,54.116z M153.144,62.3c1.761,0,3.192-1.395,3.192-3.34c0-1.927-1.431-3.302-3.192-3.302
			c-1.744,0-3.193,1.375-3.193,3.302C149.951,60.905,151.4,62.3,153.144,62.3z"/>
	</g>
</g>
</svg>
