<?xml version="1.0" encoding="utf-8"?>
<!-- Generator: Adobe Illustrator 16.0.0, SVG Export Plug-In . SVG Version: 6.00 Build 0)  -->
<!DOCTYPE svg PUBLIC "-//W3C//DTD SVG 1.1//EN" "http://www.w3.org/Graphics/SVG/1.1/DTD/svg11.dtd">
<svg version="1.1" id="Layer_1" xmlns="http://www.w3.org/2000/svg" xmlns:xlink="http://www.w3.org/1999/xlink" x="0px" y="0px"
	 width="336px" height="76px" viewBox="0 0 336 76" enable-background="new 0 0 336 76" xml:space="preserve">
<g>
	<g>
		<path fill="#EAC306" d="M228.904,36.363l-9.207,6.721c-0.738,0.539-1.734-0.185-1.449-1.054l3.546-10.833
			c0.127-0.39-0.012-0.815-0.344-1.058l-9.236-6.679c-0.739-0.536-0.358-1.706,0.556-1.704l11.397,0.023
			c0.409,0.001,0.771-0.263,0.896-0.651l3.5-10.85c0.281-0.87,1.513-0.87,1.793,0l3.498,10.85c0.125,0.39,0.488,0.652,0.897,0.651
			l11.399-0.023c0.914-0.002,1.295,1.168,0.554,1.704l-9.237,6.679c-0.33,0.24-0.47,0.668-0.343,1.058l3.547,10.833
			c0.284,0.869-0.712,1.593-1.45,1.054l-9.207-6.721C229.686,36.122,229.234,36.122,228.904,36.363z"/>
		<g>
			<path fill="#EAC306" d="M88.903,13.213h7.337l5.727,15.257l5.656-15.257h7.2v24.513h-5.521V20.515l-6.788,17.211h-1.817
				l-6.822-17.211v17.211h-4.972V13.213L88.903,13.213z"/>
			<path fill="#EAC306" d="M118.351,32.755c0-4.184,3.84-5.76,9.324-5.76h2.021v-0.721c0-2.126-0.65-3.291-2.914-3.291
				c-1.953,0-2.846,0.994-3.051,2.537h-4.697c0.309-4.252,3.668-6.138,8.057-6.138c4.391,0,7.51,1.782,7.51,6.65v11.69h-4.834
				v-2.159c-1.027,1.44-2.604,2.536-5.416,2.536C121.093,38.103,118.351,36.526,118.351,32.755z M129.698,31.452v-1.51h-1.92
				c-2.881,0-4.561,0.617-4.561,2.539c0,1.303,0.787,2.158,2.604,2.158C128.019,34.64,129.698,33.44,129.698,31.452z"/>
			<path fill="#EAC306" d="M137.545,32.103h4.63c0.205,1.611,0.993,2.537,3.153,2.537c1.92,0,2.812-0.719,2.812-1.953
				s-1.062-1.748-3.635-2.127c-4.767-0.719-6.617-2.09-6.617-5.588c0-3.737,3.43-5.589,7.099-5.589c3.978,0,6.96,1.439,7.405,5.555
				h-4.561c-0.273-1.475-1.099-2.16-2.812-2.16c-1.61,0-2.536,0.754-2.536,1.853c0,1.132,0.854,1.576,3.463,1.953
				c4.491,0.652,6.96,1.783,6.96,5.623c0,3.875-2.812,5.896-7.543,5.896C140.528,38.103,137.718,35.978,137.545,32.103z"/>
			<path fill="#EAC306" d="M156.812,32.411v-9.085h-2.297v-3.53h2.297v-3.875h4.938v3.875h3.771v3.53h-3.771v8.64
				c0,1.439,0.719,2.127,1.988,2.127c0.754,0,1.303-0.104,1.887-0.344v3.84c-0.688,0.24-1.682,0.48-3.02,0.48
				C158.836,38.069,156.812,36.149,156.812,32.411z"/>
			<path fill="#EAC306" d="M167.884,28.983v-0.275c0-5.655,4.013-9.324,9.224-9.324c4.629,0,8.744,2.709,8.744,9.119v1.371h-12.927
				c0.138,2.984,1.748,4.697,4.457,4.697c2.298,0,3.429-0.994,3.735-2.502h4.695c-0.582,3.875-3.668,6.033-8.57,6.033
				C171.826,38.103,167.884,34.71,167.884,28.983z M181.016,26.823c-0.173-2.709-1.545-4.012-3.908-4.012
				c-2.229,0-3.737,1.475-4.114,4.012H181.016z"/>
			<path fill="#EAC306" d="M189.104,19.796h4.972v3.428c1.131-2.399,2.881-3.668,5.795-3.702v4.628
				c-3.669-0.034-5.795,1.166-5.795,4.595v8.981h-4.972V19.796L189.104,19.796z"/>
		</g>
	</g>
	<g>
		<path d="M88.903,49.747h1.817v5.688h6.716v-5.688h1.816v12.956h-1.816v-5.689H90.72v5.689h-1.817V49.747z"/>
		<path d="M102.398,49.747h1.798v1.817h-1.798V49.747z M102.417,53.417h1.779v9.286h-1.779V53.417z"/>
		<path d="M106.989,53.417h1.633v0.791c0,0.365-0.036,0.678-0.036,0.678h0.036c0,0,0.789-1.688,3.12-1.688
			c2.496,0,4.074,1.981,4.074,4.861c0,2.956-1.78,4.865-4.202,4.865c-2.038,0-2.845-1.523-2.845-1.523h-0.037
			c0,0,0.037,0.328,0.037,0.808v4.165h-1.78V53.417z M111.338,61.4c1.468,0,2.679-1.211,2.679-3.322
			c0-2.018-1.083-3.321-2.624-3.321c-1.395,0-2.68,0.972-2.68,3.34C108.714,59.748,109.631,61.4,111.338,61.4z"/>
		<path d="M122.336,53.197c2.771,0,5.009,2.036,5.009,4.844c0,2.827-2.239,4.883-5.009,4.883c-2.771,0-5.01-2.056-5.01-4.883
			C117.327,55.233,119.565,53.197,122.336,53.197z M122.336,61.381c1.762,0,3.192-1.395,3.192-3.34c0-1.927-1.431-3.302-3.192-3.302
			c-1.744,0-3.193,1.375-3.193,3.302C119.144,59.986,120.592,61.381,122.336,61.381z"/>
		<path d="M129.848,54.977h-1.212v-1.431h1.267v-2.68h1.726v2.68h2.239v1.431h-2.239v4.13c0,1.854,1.303,2.091,1.982,2.091
			c0.257,0,0.422-0.036,0.422-0.036v1.579c0,0-0.257,0.036-0.624,0.036c-1.193,0-3.56-0.367-3.56-3.468V54.977z"/>
		<path d="M140.036,53.197c2.625,0,4.02,1.946,4.02,4.349c0,0.239-0.055,0.771-0.055,0.771h-6.772
			c0.092,2.038,1.542,3.064,3.193,3.064c1.597,0,2.752-1.083,2.752-1.083l0.734,1.304c0,0-1.375,1.322-3.596,1.322
			c-2.918,0-4.918-2.111-4.918-4.865C135.394,55.105,137.394,53.197,140.036,53.197z M142.238,56.979
			c-0.055-1.596-1.045-2.368-2.239-2.368c-1.357,0-2.458,0.843-2.716,2.368H142.238z"/>
		<path d="M150.539,53.197c2.331,0,3.486,1.356,3.486,1.356l-0.843,1.25c0,0-0.991-1.064-2.569-1.064
			c-1.873,0-3.23,1.395-3.23,3.302c0,1.891,1.357,3.34,3.284,3.34c1.727,0,2.864-1.248,2.864-1.248l0.715,1.304
			c0,0-1.285,1.487-3.707,1.487c-2.918,0-4.973-2.074-4.973-4.865C145.566,55.307,147.621,53.197,150.539,53.197z"/>
		<path d="M161.115,56.903h0.403v-0.165c0-1.522-0.861-2.036-2.038-2.036c-1.43,0-2.586,0.897-2.586,0.897l-0.734-1.302
			c0,0,1.34-1.101,3.469-1.101c2.35,0,3.67,1.285,3.67,3.634v5.872h-1.651v-0.882c0-0.421,0.036-0.732,0.036-0.732h-0.036
			c0,0-0.753,1.835-2.974,1.835c-1.596,0-3.155-0.974-3.155-2.826C155.518,57.032,159.554,56.903,161.115,56.903z M159.059,61.491
			c1.505,0,2.478-1.577,2.478-2.953v-0.295h-0.459c-1.34,0-3.761,0.091-3.761,1.763C157.317,60.759,157.904,61.491,159.059,61.491z"
			/>
		<path d="M165.964,53.417h1.727v1.615c0,0.385-0.038,0.696-0.038,0.696h0.038c0.421-1.357,1.502-2.42,2.934-2.42
			c0.238,0,0.457,0.035,0.457,0.035v1.762c0,0-0.238-0.055-0.512-0.055c-1.139,0-2.183,0.807-2.606,2.184
			c-0.164,0.532-0.221,1.1-0.221,1.672v3.797h-1.779V53.417z"/>
		<path d="M172.83,49.747h1.799v1.817h-1.799V49.747z M172.85,53.417h1.779v9.286h-1.779V53.417z"/>
		<path d="M181.752,53.197c2.77,0,5.01,2.036,5.01,4.844c0,2.827-2.24,4.883-5.01,4.883c-2.771,0-5.01-2.056-5.01-4.883
			C176.742,55.233,178.98,53.197,181.752,53.197z M181.752,61.381c1.762,0,3.191-1.395,3.191-3.34c0-1.927-1.43-3.302-3.191-3.302
			c-1.744,0-3.193,1.375-3.193,3.302C178.559,59.986,180.008,61.381,181.752,61.381z"/>
	</g>
</g>
<rect x="96.158" y="94.229" fill="#FF2E7A" width="4.938" height="12.021"/>
</svg>
