<?xml version="1.0" encoding="utf-8"?>
<!-- Generator: Adobe Illustrator 16.0.0, SVG Export Plug-In . SVG Version: 6.00 Build 0)  -->
<!DOCTYPE svg PUBLIC "-//W3C//DTD SVG 1.1//EN" "http://www.w3.org/Graphics/SVG/1.1/DTD/svg11.dtd">
<svg version="1.1" id="Layer_1" xmlns="http://www.w3.org/2000/svg" xmlns:xlink="http://www.w3.org/1999/xlink" x="0px" y="0px"
	 width="336px" height="76px" viewBox="0 0 336 76" enable-background="new 0 0 336 76" xml:space="preserve">
<g>
	<g>
		<path fill="#09B536" d="M63.734,35.83v-0.28c0-7.459,5.463-12.747,12.887-12.747c7.529,0,12.887,5.078,12.887,12.606v0.28
			c0,7.458-5.113,12.888-12.922,12.888C68.742,48.576,63.734,43.146,63.734,35.83z M83.589,35.759v-0.28
			c0-4.868-2.591-8.194-6.969-8.194c-4.342,0-6.969,3.187-6.969,8.229v0.28c0,5.112,2.941,8.264,7.039,8.264
			C80.929,44.059,83.589,40.803,83.589,35.759z"/>
		<path fill="#09B536" d="M93.146,29.875h5.078v2.872c1.016-1.751,3.151-3.292,5.848-3.292c4.482,0,7.984,3.327,7.984,9.386v0.279
			c0,6.059-3.433,9.455-7.984,9.455c-2.836,0-4.902-1.4-5.848-3.188v9.035h-5.078V29.875z M106.908,39.156v-0.281
			c0-3.711-1.82-5.532-4.377-5.532c-2.662,0-4.482,1.855-4.482,5.532v0.281c0,3.678,1.752,5.463,4.518,5.463
			C105.368,44.619,106.908,42.729,106.908,39.156z"/>
		<path fill="#09B536" d="M114.33,39.262V38.98c0-5.777,4.098-9.524,9.42-9.524c4.729,0,8.93,2.767,8.93,9.315v1.4h-13.201
			c0.14,3.047,1.785,4.797,4.552,4.797c2.346,0,3.502-1.016,3.817-2.557h4.797c-0.594,3.957-3.746,6.164-8.754,6.164
			C118.357,48.576,114.33,45.107,114.33,39.262z M127.742,37.056c-0.175-2.767-1.576-4.098-3.992-4.098
			c-2.275,0-3.816,1.506-4.201,4.098H127.742z"/>
		<path fill="#09B536" d="M136.003,29.875h5.078v3.501c1.155-2.451,2.941-3.747,5.918-3.782v4.729
			c-3.746-0.035-5.918,1.19-5.918,4.691v9.176h-5.078V29.875z"/>
		<path fill="#09B536" d="M148.784,43.111c0-4.27,3.922-5.882,9.524-5.882h2.065v-0.735c0-2.171-0.665-3.362-2.978-3.362
			c-1.995,0-2.905,1.016-3.116,2.592h-4.797c0.313-4.343,3.747-6.269,8.229-6.269c4.481,0,7.668,1.821,7.668,6.794v11.94h-4.938
			v-2.205c-1.051,1.471-2.662,2.592-5.533,2.592C151.585,48.576,148.784,46.965,148.784,43.111z M160.375,41.783v-1.541h-1.961
			c-2.941,0-4.656,0.629-4.656,2.592c0,1.33,0.805,2.205,2.66,2.205C158.659,45.039,160.375,43.812,160.375,41.783z"/>
		<path fill="#09B536" d="M168.636,39.297v-0.281c0-6.022,3.467-9.56,8.055-9.56c2.941,0,4.763,1.296,5.777,3.152V21.577h5.043
			v26.613h-5.043v-3.047c-0.944,1.857-3.187,3.434-5.883,3.434C172.138,48.576,168.636,45.389,168.636,39.297z M182.609,39.121
			v-0.279c0-3.643-1.611-5.499-4.377-5.499c-2.837,0-4.413,1.926-4.413,5.567v0.279c0,3.645,1.751,5.43,4.271,5.43
			C180.753,44.619,182.609,42.834,182.609,39.121z"/>
		<path fill="#09B536" d="M190.906,39.227v-0.281c0-5.742,4.167-9.489,9.665-9.489s9.63,3.677,9.63,9.385v0.279
			c0,5.777-4.167,9.455-9.665,9.455C195.073,48.576,190.906,44.934,190.906,39.227z M205.054,39.156V38.91
			c0-3.501-1.646-5.603-4.482-5.603c-2.803,0-4.482,2.031-4.482,5.532v0.279c0,3.502,1.61,5.604,4.482,5.604
			C203.407,44.725,205.054,42.623,205.054,39.156z"/>
		<path fill="#09B536" d="M213.595,29.875h5.078v3.501c1.155-2.451,2.941-3.747,5.918-3.782v4.729
			c-3.746-0.035-5.918,1.19-5.918,4.691v9.176h-5.078V29.875z"/>
	</g>
	<path fill="#09B536" d="M254.073,47.915l-9.208,6.721c-0.738,0.539-1.734-0.185-1.449-1.054l3.546-10.833
		c0.127-0.39-0.012-0.816-0.344-1.057l-9.236-6.68c-0.74-0.536-0.36-1.706,0.554-1.704l11.399,0.024
		c0.409,0.001,0.772-0.263,0.897-0.652l3.499-10.849c0.281-0.87,1.512-0.87,1.793,0l3.498,10.849
		c0.126,0.39,0.489,0.653,0.898,0.652l11.399-0.024c0.914-0.002,1.295,1.168,0.554,1.704l-9.237,6.68
		c-0.331,0.24-0.47,0.667-0.343,1.057l3.547,10.833c0.284,0.869-0.712,1.593-1.45,1.054l-9.207-6.721
		C254.853,47.674,254.403,47.674,254.073,47.915z"/>
</g>
</svg>
