<?xml version="1.0" encoding="utf-8"?>
<!-- Generator: Adobe Illustrator 16.0.0, SVG Export Plug-In . SVG Version: 6.00 Build 0)  -->
<!DOCTYPE svg PUBLIC "-//W3C//DTD SVG 1.1//EN" "http://www.w3.org/Graphics/SVG/1.1/DTD/svg11.dtd">
<svg version="1.1" id="Layer_1" xmlns="http://www.w3.org/2000/svg" xmlns:xlink="http://www.w3.org/1999/xlink" x="0px" y="0px"
	 width="336px" height="76px" viewBox="0 0 336 76" enable-background="new 0 0 336 76" xml:space="preserve">
<g>
	<g>
		<g>
			<path fill="#45566E" d="M90.285,30.537h5.428c0.244,2.242,1.19,4.099,4.902,4.099c2.486,0,4.133-1.363,4.133-3.328
				c0-1.993-1.051-2.693-4.729-3.256c-6.409-0.84-9.035-2.767-9.035-7.6c0-4.272,3.572-7.459,9.105-7.459
				c5.638,0,8.93,2.521,9.385,7.494h-5.219c-0.35-2.276-1.68-3.327-4.166-3.327c-2.487,0-3.748,1.156-3.748,2.837
				c0,1.786,0.806,2.626,4.658,3.187c6.059,0.771,9.175,2.416,9.175,7.6c0,4.447-3.642,7.982-9.56,7.982
				C93.75,38.767,90.599,35.546,90.285,30.537z"/>
			<path fill="#45566E" d="M112.693,29.452v-0.279c0-5.779,4.099-9.523,9.422-9.523c4.728,0,8.931,2.767,8.931,9.312v1.4h-13.203
				c0.14,3.047,1.785,4.798,4.553,4.798c2.346,0,3.501-1.017,3.816-2.558h4.797c-0.597,3.957-3.746,6.164-8.754,6.164
				C116.719,38.767,112.693,35.3,112.693,29.452z M126.106,27.246c-0.176-2.767-1.575-4.098-3.991-4.098
				c-2.276,0-3.817,1.506-4.203,4.098H126.106z"/>
			<path fill="#45566E" d="M134.369,20.067h5.078v2.907c0.909-1.821,2.905-3.327,5.952-3.327c3.605,0,6.163,2.172,6.163,7.074v11.66
				h-5.078V27.456c0-2.486-0.979-3.677-3.222-3.677c-2.172,0-3.815,1.33-3.815,4.026v10.576h-5.078V20.067L134.369,20.067z"/>
			<path fill="#45566E" d="M155.656,14.814c0-1.576,1.263-2.766,2.871-2.766c1.646,0,2.907,1.19,2.907,2.766
				c0,1.576-1.262,2.767-2.907,2.767C156.917,17.58,155.656,16.39,155.656,14.814z M156.042,20.067h5.043v18.314h-5.043V20.067z"/>
			<path fill="#45566E" d="M164.619,29.417v-0.279c0-5.746,4.167-9.49,9.666-9.49s9.632,3.677,9.632,9.386v0.279
				c0,5.778-4.168,9.454-9.666,9.454C168.786,38.767,164.619,35.125,164.619,29.417z M178.766,29.347v-0.246
				c0-3.501-1.646-5.604-4.48-5.604c-2.803,0-4.48,2.031-4.48,5.533v0.278c0,3.504,1.609,5.604,4.48,5.604
				C177.12,34.915,178.766,32.813,178.766,29.347z"/>
			<path fill="#45566E" d="M187.309,20.067h5.078v3.501c1.154-2.451,2.939-3.747,5.918-3.782v4.728
				c-3.748-0.035-5.918,1.19-5.918,4.692v9.176h-5.078V20.067L187.309,20.067z"/>
		</g>
		<path fill="#45566E" d="M227.523,35.322l-9.209,6.721c-0.737,0.539-1.733-0.185-1.448-1.054l3.546-10.833
			c0.127-0.39-0.012-0.815-0.344-1.058l-9.236-6.679c-0.74-0.536-0.359-1.706,0.555-1.704l11.398,0.024
			c0.408,0.001,0.771-0.263,0.896-0.652l3.5-10.849c0.28-0.87,1.512-0.87,1.793,0l3.498,10.849c0.125,0.39,0.487,0.653,0.896,0.652
			l11.398-0.024c0.914-0.002,1.295,1.168,0.555,1.704l-9.237,6.679c-0.33,0.24-0.47,0.668-0.343,1.058l3.547,10.833
			c0.283,0.869-0.712,1.593-1.45,1.054l-9.207-6.721C228.303,35.081,227.854,35.081,227.523,35.322z"/>
	</g>
	<g>
		<path d="M90.285,50.788h1.817v5.688h6.716v-5.688h1.816v12.956h-1.816v-5.689h-6.716v5.689h-1.817V50.788z"/>
		<path d="M103.781,50.788h1.798v1.817h-1.798V50.788z M103.799,54.458h1.779v9.286h-1.779V54.458z"/>
		<path d="M108.372,54.458h1.633v0.791c0,0.365-0.036,0.678-0.036,0.678h0.036c0,0,0.789-1.688,3.12-1.688
			c2.496,0,4.074,1.981,4.074,4.861c0,2.956-1.78,4.865-4.202,4.865c-2.038,0-2.845-1.523-2.845-1.523h-0.037
			c0,0,0.037,0.328,0.037,0.808v4.165h-1.78V54.458z M112.721,62.441c1.468,0,2.679-1.211,2.679-3.322
			c0-2.018-1.083-3.321-2.624-3.321c-1.395,0-2.68,0.972-2.68,3.34C110.096,60.789,111.014,62.441,112.721,62.441z"/>
		<path d="M123.719,54.238c2.771,0,5.009,2.036,5.009,4.844c0,2.827-2.239,4.883-5.009,4.883c-2.771,0-5.01-2.056-5.01-4.883
			C118.709,56.274,120.948,54.238,123.719,54.238z M123.719,62.422c1.762,0,3.192-1.395,3.192-3.34c0-1.927-1.431-3.302-3.192-3.302
			c-1.744,0-3.193,1.375-3.193,3.302C120.526,61.027,121.975,62.422,123.719,62.422z"/>
		<path d="M131.23,56.018h-1.212v-1.431h1.267v-2.68h1.726v2.68h2.239v1.431h-2.239v4.13c0,1.854,1.303,2.091,1.982,2.091
			c0.257,0,0.422-0.036,0.422-0.036v1.579c0,0-0.257,0.036-0.624,0.036c-1.193,0-3.56-0.367-3.56-3.468V56.018z"/>
		<path d="M141.418,54.238c2.625,0,4.021,1.946,4.021,4.349c0,0.239-0.056,0.771-0.056,0.771h-6.772
			c0.092,2.038,1.542,3.064,3.193,3.064c1.597,0,2.752-1.083,2.752-1.083l0.734,1.304c0,0-1.375,1.322-3.596,1.322
			c-2.918,0-4.918-2.111-4.918-4.865C136.776,56.146,138.776,54.238,141.418,54.238z M143.62,58.02
			c-0.055-1.596-1.045-2.368-2.238-2.368c-1.357,0-2.459,0.843-2.716,2.368H143.62z"/>
		<path d="M151.921,54.238c2.331,0,3.486,1.356,3.486,1.356l-0.843,1.25c0,0-0.991-1.064-2.569-1.064
			c-1.873,0-3.23,1.395-3.23,3.302c0,1.891,1.357,3.34,3.284,3.34c1.727,0,2.864-1.248,2.864-1.248l0.715,1.304
			c0,0-1.285,1.487-3.707,1.487c-2.918,0-4.973-2.074-4.973-4.865C146.948,56.348,149.003,54.238,151.921,54.238z"/>
		<path d="M162.497,57.944h0.403v-0.165c0-1.522-0.861-2.036-2.038-2.036c-1.43,0-2.586,0.897-2.586,0.897l-0.734-1.302
			c0,0,1.34-1.101,3.469-1.101c2.35,0,3.67,1.285,3.67,3.634v5.872h-1.651v-0.882c0-0.421,0.036-0.732,0.036-0.732h-0.036
			c0,0-0.753,1.835-2.974,1.835c-1.596,0-3.155-0.974-3.155-2.826C156.9,58.073,160.937,57.944,162.497,57.944z M160.441,62.532
			c1.505,0,2.478-1.577,2.478-2.953v-0.295h-0.459c-1.34,0-3.761,0.091-3.761,1.763C158.699,61.8,159.286,62.532,160.441,62.532z"/>
		<path d="M167.347,54.458h1.727v1.615c0,0.385-0.038,0.696-0.038,0.696h0.038c0.421-1.357,1.503-2.42,2.936-2.42
			c0.237,0,0.457,0.035,0.457,0.035v1.762c0,0-0.238-0.055-0.512-0.055c-1.139,0-2.185,0.807-2.607,2.184
			c-0.164,0.532-0.221,1.1-0.221,1.672v3.797h-1.779V54.458z"/>
		<path d="M174.214,50.788h1.799v1.817h-1.799V50.788z M174.233,54.458h1.779v9.286h-1.779V54.458z"/>
		<path d="M183.136,54.238c2.77,0,5.01,2.036,5.01,4.844c0,2.827-2.24,4.883-5.01,4.883c-2.771,0-5.01-2.056-5.01-4.883
			C178.126,56.274,180.364,54.238,183.136,54.238z M183.136,62.422c1.761,0,3.191-1.395,3.191-3.34c0-1.927-1.431-3.302-3.191-3.302
			c-1.744,0-3.193,1.375-3.193,3.302C179.942,61.027,181.392,62.422,183.136,62.422z"/>
	</g>
</g>
</svg>
